<?xml version='1.0' encoding='utf-8'?>
<svg xmlns="http://www.w3.org/2000/svg" width="1920" height="1080" viewBox="0 0 1920 1080" data-theme="light">
  <style>
        @font-face {
            font-family: 'Inter';
            src: url('assets/fonts/Inter-Regular.ttf') format('truetype');
            font-weight: 400;
            font-style: normal;
            font-display: swap;
        }
        @font-face {
            font-family: 'Inter';
            src: url('assets/fonts/Inter-Bold.ttf') format('truetype');
            font-weight: 600;
            font-style: normal;
            font-display: swap;
        }
        @font-face {
            font-family: 'Inter';
            src: url('assets/fonts/Inter-Bold.ttf') format('truetype');
            font-weight: 800;
            font-style: normal;
            font-display: swap;
        }
        
:root {
    --background: #f8fafc;
    --panel: #ffffff;
    --primary-text: #0f172a;
    --muted-text: #64748b;
    --inverse-text: #ffffff;
    --border: #e2e8f0;
    --shadow-color: #000000;
    --icon-pad-bg: #1e293b;
    --art-glow: #0891b2;
    --art-glow-opacity: 0.10;
    --art-sheen: #ffffff;
    --art-sheen-opacity: 0.34;
    --art-shadow: #0f172a;
    --art-shadow-opacity: 0.14;
    --art-muted-line: #94a3b8;
    --art-panel-tint: #f1f5f9;
    --font-family: 'Inter', 'Segoe UI', 'Kalam', Roboto, Helvetica, Arial, sans-serif;
    --radius-xl: 16px;
    --font-family-headline: 'Inter', 'Segoe UI', 'Kalam', Roboto, Helvetica, Arial, sans-serif;
    --font-family-body: 'Inter', 'Segoe UI', 'Kalam', Roboto, Helvetica, Arial, sans-serif;
    --font-heading: 'Inter', 'Segoe UI', 'Kalam', Roboto, Helvetica, Arial, sans-serif;
    --font-body: 'Inter', 'Segoe UI', 'Kalam', Roboto, Helvetica, Arial, sans-serif;
    --font-size-h1: 56px;
    --font-size-h2: 40px;
    --font-size-h3: 28px;
    --font-size-body: 24px;
    --font-size-caption: 18px;
    --secondary-text: var(--muted-text);
    --panel-border: var(--border);
    --font-weight-normal: 400;
    --font-weight-medium: 500;
    --font-weight-semibold: 600;
    --font-weight-bold: 700;
    --spacing-gutter-pct: 0.07;
    --spacing-top-pct: 0.15;
    --spacing-bottom-pct: 0.07;
    --spacing-title-y-pct: 0.055;
    --accent-1: #0891b2;
    --accent-2: #db2777;
    --accent-3: #ca8a04;
    --accent-4: #65a30d;
    --accent-5: #ea580c;
    --accent-6: #9333ea;
}
:root[data-theme="dark"] {
    --background: #0f172a;
    --panel: #1e293b;
    --primary-text: #f1f5f9;
    --muted-text: #94a3b8;
    --inverse-text: #0f172a;
    --border: #334155;
    --shadow-color: #000000;
    --icon-pad-bg: #1e293b;
    --art-glow: #7dd3fc;
    --art-glow-opacity: 0.18;
    --art-sheen: #ffffff;
    --art-sheen-opacity: 0.18;
    --art-shadow: #000000;
    --art-shadow-opacity: 0.28;
    --art-muted-line: #64748b;
    --art-panel-tint: #1e293b;
    --accent-1: #22d3ee;
    --accent-2: #f472b6;
    --accent-3: #facc15;
    --accent-4: #a3e635;
    --accent-5: #fb923c;
    --accent-6: #c084fc;
}
:root[data-theme="light"] {
    --background: #f8fafc;
    --panel: #ffffff;
    --primary-text: #0f172a;
    --muted-text: #64748b;
    --inverse-text: #ffffff;
    --border: #e2e8f0;
    --shadow-color: #000000;
    --icon-pad-bg: #1e293b;
    --art-glow: #0891b2;
    --art-glow-opacity: 0.10;
    --art-sheen: #ffffff;
    --art-sheen-opacity: 0.34;
    --art-shadow: #0f172a;
    --art-shadow-opacity: 0.14;
    --art-muted-line: #94a3b8;
    --art-panel-tint: #f1f5f9;
    --accent-1: #0891b2;
    --accent-2: #db2777;
    --accent-3: #ca8a04;
    --accent-4: #65a30d;
    --accent-5: #ea580c;
    --accent-6: #9333ea;
}</style>
  <rect x="0" y="0" width="1.92E+3" height="1.08E+3" fill="#252a34" stroke="none" id="programmatic_background"/>
  <line id="HEADER_DECOR" x1="960.0" x2="1080.0" y1="135.0" y2="135.0" stroke="var(--accent-1)" stroke-width="6" stroke-linecap="round"/>
  <defs>
    <pattern id="svgeaf227db-napkin-hatch" patternUnits="userSpaceOnUse" width="12" height="12">
      <path d="M -3 12 L 12 -3 M 0 15 L 15 0" fill="none" stroke="var(--primary-text)" stroke-width="1" stroke-opacity="0.05"/>
    </pattern>
    <filter id="svgeaf227db-shadow" x="-30%" y="-30%" width="160%" height="160%">
      <feDropShadow dx="0" dy="2" stdDeviation="3" flood-color="#000000" flood-opacity="0.08"/>
      <feDropShadow dx="0" dy="6" stdDeviation="10" flood-color="#000000" flood-opacity="0.12"/>
    </filter>
    <marker id="svgeaf227db-arrowhead" markerWidth="10" markerHeight="10" refX="9" refY="5" orient="auto">
      <path d="M 0 0 L 10 5 L 0 10 Z" fill="var(--accent-1)"/>
    </marker>
    <filter id="svgeaf227db-text-glow" x="-20%" y="-20%" width="140%" height="140%">
      <feDropShadow dx="0" dy="0" stdDeviation="2" flood-color="#000000" flood-opacity="0.4"/>
    </filter>
    <radialGradient id="svgeaf227db-universal-edge-vignette" cx="50%" cy="50%" r="72%">
      <stop offset="0%" stop-color="var(--background)" stop-opacity="0"/>
      <stop offset="72%" stop-color="var(--background)" stop-opacity="0.12"/>
      <stop offset="100%" stop-color="var(--primary-text)" stop-opacity="0.08"/>
    </radialGradient>
    <linearGradient id="svgeaf227db-universal-surface-sheen" x1="0%" y1="0%" x2="100%" y2="100%">
      <stop offset="0%" stop-color="var(--art-sheen)" stop-opacity="var(--art-sheen-opacity)"/>
      <stop offset="46%" stop-color="var(--art-sheen)" stop-opacity="0.035"/>
      <stop offset="100%" stop-color="var(--art-panel-tint)" stop-opacity="0.14"/>
    </linearGradient>
    <radialGradient id="svgeaf227db-universal-icon-aura" cx="50%" cy="42%" r="64%">
      <stop offset="0%" stop-color="var(--art-glow)" stop-opacity="var(--art-glow-opacity)"/>
      <stop offset="100%" stop-color="var(--background)" stop-opacity="0"/>
    </radialGradient>
  </defs>
  <rect width="100%" height="100%" fill="var(--background)" id="CANVAS_BG"/>
  <rect width="100%" height="100%" fill="url(#svgeaf227db-napkin-hatch)"/>
  <rect id="UNIVERSAL_EDGE_VIGNETTE" width="100%" height="100%" fill="url(#svgeaf227db-universal-edge-vignette)" opacity="0.62"/>
  <text id="TITLE" x="960.0" y="59" text-anchor="middle" font-weight="800" font-size="56" fill="#0f172a" style="font-size: 60px; font-family: Inter, Segoe UI, Kalam, Roboto, Helvetica, Arial, sans-serif; font-weight: 700; letter-spacing:-1.2px;" data-final-font-size="60">
    <tspan x="960.0" dy="68.00px">Evaluating Kent Ghost Credibility</tspan>
  </text>
  <rect id="TITLE_FRAME" x="134" y="59" width="1652" height="103" fill="none"/>
  <g transform="translate(50, 500) scale(0.95)">
    <g transform="translate(240.0, 0)">
      <rect id="ITEM_1_BG" x="-140" y="-180" width="280" height="360" rx="24" fill="var(--panel)" stroke="var(--accent-1)" stroke-width="2"/>
      <text id="ITEM_1_HEAD" x="0.0" y="10.0" text-anchor="middle" font-weight="bold" font-size="32" fill="var(--primary-text)" data-bg-id="ITEM_1_BG" fill-opacity="1.0" style="font-size: 25px; font-family: Inter, Segoe UI, Kalam, Roboto, Helvetica, Arial, sans-serif; font-weight: 700; letter-spacing:-0.4px;" data-final-font-size="25">
        <tspan x="0.0" dy="25.62px">Source Traceability</tspan>
      </text>
      <rect id="ITEM_1_HEAD_FRAME" x="-120" y="10" width="240" height="40" fill="none"/>
      <text id="ITEM_1_BODY" x="0.0" y="60.0" text-anchor="middle" font-size="22" fill="var(--primary-text)" data-bg-id="ITEM_1_BG" style="font-size: 26px; font-family: Inter, Segoe UI, Kalam, Roboto, Helvetica, Arial, sans-serif; font-weight: 400;" data-final-font-size="26">
        <tspan x="0.0" dy="26.86px">Identify if stories</tspan>
        <tspan x="0.0" dy="29.90px">appear in early</tspan>
        <tspan x="0.0" dy="29.90px">historical records</tspan>
      </text>
      <rect id="ITEM_1_BODY_FRAME" x="-143" y="60" width="286" height="120" fill="none" data-side-overflow-fix="47.0|47.0"/>
      <circle id="ITEM_1_PAD" cx="0" cy="-70" r="58" fill="var(--icon-pad-bg)" stroke="var(--primary-text)" opacity="0.9" fill-opacity="0.9" stroke-width="2"/>
      <circle id="ITEM_1_PAD_INNER" cx="0" cy="-70" r="45.24" fill="var(--accent-1)" fill-opacity="0.22"/>
      <circle cx="0" cy="-70" r="46.4" fill="none" stroke="var(--accent-1)" stroke-width="3" stroke-dasharray="6 4"/>
      <g id="ITEM_1_ICON" transform="translate(-45, -115)" data-icon-size="90" stroke-dasharray="6 4">
        <g transform="translate(-6.7028571428571455,-9.934285714285723) scale(3.2314285714285718)">
          <path d="M15.385 7.39062L12.9075 4.915C12.3219 4.32875 11.5275 4 10.6987 4H4.125C2.95125 4 2 4.95125 2 6.125V13.5H12.985H30V10.1375C30 8.96375 29.0488 8.0125 27.875 8.0125H16.8875C16.3237 8.0125 15.7838 7.78875 15.385 7.39062Z" fill="#FFB02E"/>
          <path d="M27.875 30H4.125C2.95125 30 2 29.0545 2 27.8878V13.1122C2 11.9455 2.95125 11 4.125 11H27.875C29.0488 11 30 11.9455 30 13.1122V27.8878C30 29.0545 29.0488 30 27.875 30Z" fill="#FCD53F"/>
        </g>
      </g>
    </g>
    <text x="420.0" y="50" text-anchor="middle" font-size="72" font-weight="900" fill="var(--muted-text)" opacity="0.5" dominant-baseline="middle">+</text>
    <g transform="translate(600.0, 0)">
      <rect id="ITEM_2_BG" x="-140" y="-180" width="280" height="360" rx="24" fill="var(--panel)" stroke="var(--accent-2)" stroke-width="2"/>
      <text id="ITEM_2_HEAD" x="0.0" y="10.0" text-anchor="middle" font-weight="bold" font-size="32" fill="var(--accent-2)" data-bg-id="ITEM_2_BG" fill-opacity="1.0" style="font-size: 28px; font-family: Inter, Segoe UI, Kalam, Roboto, Helvetica, Arial, sans-serif; font-weight: 700; letter-spacing:-0.4px;" data-final-font-size="28">
        <tspan x="0.0" dy="26.30px">Historical Anchor</tspan>
      </text>
      <rect id="ITEM_2_HEAD_FRAME" x="-120" y="10" width="240" height="40" fill="none"/>
      <text id="ITEM_2_BODY" x="0.0" y="60.0" text-anchor="middle" font-size="22" fill="var(--primary-text)" data-bg-id="ITEM_2_BG" style="font-size: 26px; font-family: Inter, Segoe UI, Kalam, Roboto, Helvetica, Arial, sans-serif; font-weight: 400;" data-final-font-size="26">
        <tspan x="0.0" dy="26.86px">Link legends to real</tspan>
        <tspan x="0.0" dy="29.90px">events like the</tspan>
        <tspan x="0.0" dy="29.90px">1965 crash</tspan>
      </text>
      <rect id="ITEM_2_BODY_FRAME" x="-143" y="60" width="286" height="120" fill="none" data-side-overflow-fix="47.0|47.0"/>
      <circle id="ITEM_2_PAD" cx="0" cy="-70" r="58" fill="var(--icon-pad-bg)" stroke="var(--primary-text)" opacity="0.9" fill-opacity="0.9" stroke-width="2"/>
      <circle id="ITEM_2_PAD_INNER" cx="0" cy="-70" r="45.24" fill="var(--accent-2)" fill-opacity="0.22"/>
      <circle cx="0" cy="-70" r="46.4" fill="none" stroke="var(--accent-2)" stroke-width="3" stroke-dasharray="6 4"/>
      <g id="ITEM_2_ICON" transform="translate(-45, -115)" data-icon-size="90" stroke-dasharray="6 4">
        <g transform="translate(-6.702857142857152,-6.7028571428571455) scale(3.2314285714285718)">
          <path fill-rule="evenodd" clip-rule="evenodd" d="M13.0009 5C13.0009 5.8908 13.3868 6.68944 14.0009 7.23832V10H10.5009C9.67089 10 9.00089 10.67 9.00089 11.5C9.00089 12.33 9.67089 13 10.5009 13H14.0009V26.7763C11.3397 26.1708 9.12469 24.3837 7.94087 22L7.98088 21.9999C8.85088 21.9999 9.32088 20.9799 8.75088 20.3199L5.36088 16.3599C4.79088 15.6899 3.70088 16.0099 3.58088 16.8799L3.01088 20.8399C2.92088 21.4499 3.40088 21.9999 4.02088 21.9999L4.69087 22C6.33087 26.66 10.7709 30 16.0009 30C21.2309 30 25.6709 26.66 27.3109 22L27.9809 21.9999C28.6009 21.9999 29.0809 21.4499 28.9909 20.8399L28.4209 16.8799C28.3009 16.0099 27.2109 15.6899 26.6409 16.3599L23.2509 20.3199C22.6809 20.9799 23.1509 21.9999 24.0209 21.9999H24.0609C22.8771 24.3836 20.6621 26.1708 18.0009 26.7763V13H21.5009C22.3309 13 23.0009 12.33 23.0009 11.5C23.0009 10.67 22.3309 10 21.5009 10H18.0009V7.23832C18.615 6.68944 19.0009 5.8908 19.0009 5C19.0009 3.34 17.6609 2 16.0009 2C14.3409 2 13.0009 3.34 13.0009 5ZM15.0009 5C15.0009 4.45 15.4509 4 16.0009 4C16.5509 4 17.0009 4.45 17.0009 5C17.0009 5.55 16.5509 6 16.0009 6C15.4509 6 15.0009 5.55 15.0009 5Z" fill="#00A6ED"/>
        </g>
      </g>
    </g>
    <text x="780.0" y="50" text-anchor="middle" font-size="72" font-weight="900" fill="var(--muted-text)" opacity="0.5" dominant-baseline="middle">+</text>
    <g transform="translate(960.0, 0)">
      <rect id="ITEM_3_BG" x="-140" y="-180" width="280" height="360" rx="24" fill="var(--panel)" stroke="var(--accent-3)" stroke-width="2"/>
      <text id="ITEM_3_HEAD" x="0.0" y="10.0" text-anchor="middle" font-weight="bold" font-size="32" fill="var(--primary-text)" data-bg-id="ITEM_3_BG" fill-opacity="1.0" style="font-size: 23px; font-family: Inter, Segoe UI, Kalam, Roboto, Helvetica, Arial, sans-serif; font-weight: 700; letter-spacing:-0.4px;" data-final-font-size="23">
        <tspan x="0.0" dy="25.18px">Environmental Factors</tspan>
      </text>
      <rect id="ITEM_3_HEAD_FRAME" x="-120" y="10" width="240" height="40" fill="none"/>
      <text id="ITEM_3_BODY" x="0.0" y="60.0" text-anchor="middle" font-size="22" fill="var(--primary-text)" data-bg-id="ITEM_3_BG" style="font-size: 26px; font-family: Inter, Segoe UI, Kalam, Roboto, Helvetica, Arial, sans-serif; font-weight: 400;" data-final-font-size="26">
        <tspan x="0.0" dy="26.86px">Consider how tunnels</tspan>
        <tspan x="0.0" dy="29.90px">and caves distort</tspan>
        <tspan x="0.0" dy="29.90px">natural sound</tspan>
      </text>
      <rect id="ITEM_3_BODY_FRAME" x="-143" y="60" width="286" height="120" fill="none" data-side-overflow-fix="47.0|47.0"/>
      <circle id="ITEM_3_PAD" cx="0" cy="-70" r="58" fill="var(--icon-pad-bg)" stroke="var(--primary-text)" opacity="0.9" fill-opacity="0.9" stroke-width="2"/>
      <circle id="ITEM_3_PAD_INNER" cx="0" cy="-70" r="45.24" fill="var(--accent-3)" fill-opacity="0.22"/>
      <circle cx="0" cy="-70" r="46.4" fill="none" stroke="var(--accent-3)" stroke-width="3" stroke-dasharray="6 4"/>
      <g id="ITEM_3_ICON" transform="translate(-45, -115)" data-icon-size="90" stroke-dasharray="6 4">
        <g transform="translate(-8.61777777777778,-8.61777777777778) scale(4.468148148148148)" vector-effect="non-scaling-stroke" stroke-width="2.79" stroke-linecap="round" stroke-linejoin="round" stroke-opacity="1.0">
          <path d="M3 14h3a2 2 0 0 1 2 2v3a2 2 0 0 1-2 2H5a2 2 0 0 1-2-2v-7a9 9 0 0 1 18 0v7a2 2 0 0 1-2 2h-1a2 2 0 0 1-2-2v-3a2 2 0 0 1 2-2h3" vector-effect="non-scaling-stroke" fill="none" stroke="#f1f5f9"/>
        </g>
      </g>
    </g>
    <text x="1140.0" y="50" text-anchor="middle" font-size="72" font-weight="900" fill="var(--muted-text)" opacity="0.5" dominant-baseline="middle">+</text>
    <g transform="translate(1320.0, 0)">
      <rect id="ITEM_4_BG" x="-140" y="-180" width="280" height="360" rx="24" fill="var(--panel)" stroke="var(--accent-4)" stroke-width="2"/>
      <text id="ITEM_4_HEAD" x="0.0" y="10.0" text-anchor="middle" font-weight="bold" font-size="32" fill="var(--primary-text)" data-bg-id="ITEM_4_BG" fill-opacity="1.0" style="font-size: 23px; font-family: Inter, Segoe UI, Kalam, Roboto, Helvetica, Arial, sans-serif; font-weight: 700; letter-spacing:-0.4px;" data-final-font-size="23">
        <tspan x="0.0" dy="25.18px">Commercial Motivation</tspan>
      </text>
      <rect id="ITEM_4_HEAD_FRAME" x="-120" y="10" width="240" height="40" fill="none"/>
      <text id="ITEM_4_BODY" x="0.0" y="60.0" text-anchor="middle" font-size="22" fill="var(--primary-text)" data-bg-id="ITEM_4_BG" style="font-size: 26px; font-family: Inter, Segoe UI, Kalam, Roboto, Helvetica, Arial, sans-serif; font-weight: 400;" data-final-font-size="26">
        <tspan x="0.0" dy="26.86px">Analyze how ghost</tspan>
        <tspan x="0.0" dy="29.90px">walks package stories</tspan>
        <tspan x="0.0" dy="29.90px">for visitors</tspan>
      </text>
      <rect id="ITEM_4_BODY_FRAME" x="-143" y="60" width="286" height="120" fill="none" data-side-overflow-fix="47.0|47.0"/>
      <circle id="ITEM_4_PAD" cx="0" cy="-70" r="58" fill="var(--icon-pad-bg)" stroke="var(--primary-text)" opacity="0.9" fill-opacity="0.9" stroke-width="2"/>
      <circle id="ITEM_4_PAD_INNER" cx="0" cy="-70" r="45.24" fill="var(--accent-4)" fill-opacity="0.22"/>
      <circle cx="0" cy="-70" r="46.4" fill="none" stroke="var(--accent-4)" stroke-width="3" stroke-dasharray="6 4"/>
      <g id="ITEM_4_ICON" transform="translate(-45, -115)" data-icon-size="90" stroke-dasharray="6 4">
        <g transform="translate(-6.7028571428571455,-8.318571428571435) scale(3.2314285714285718)">
          <path d="M27.81 9H22.7C22.45 9 22.24 9.17407 22.17 9.4198C21.98 10.0853 21.37 10.5768 20.66 10.5768C19.95 10.5768 19.34 10.0956 19.15 9.4198C19.08 9.17407 18.87 9 18.62 9H4.19C2.98 9 2 10.0034 2 11.2423V21.7577C2 22.9966 2.98 24 4.19 24H18.62C18.87 24 19.08 23.8259 19.15 23.5802C19.34 22.9147 19.95 22.4232 20.66 22.4232C21.37 22.4232 21.98 22.9044 22.17 23.5802C22.24 23.8259 22.45 24 22.7 24H27.81C29.02 24 30 22.9966 30 21.7577V11.2423C30 10.0034 29.02 9 27.81 9ZM20.66 20.6416C19.79 20.6416 19.0002 19.8988 19.0002 19.008C19.0002 18.1172 19.79 17.4061 20.66 17.4061C21.53 17.4061 22.2558 18.1172 22.2558 19.008C22.2558 19.8988 21.53 20.6416 20.66 20.6416ZM20.66 15.6041C19.79 15.6041 19.0117 14.8771 19.0117 13.9863C19.0117 13.0956 19.79 12.3686 20.66 12.3686C21.53 12.3686 22.2812 13.0956 22.2812 13.9863C22.2813 14.8771 21.53 15.6041 20.66 15.6041Z" fill="#F9C23C"/>
          <path d="M10.1161 14H5.88388C5.39515 14 5 13.5686 5 13.035C5 12.5014 5.39515 12.0699 5.88388 12.0699H10.1161C10.6049 12.0699 11 12.5014 11 13.035C11 13.5799 10.6049 14 10.1161 14Z" fill="#D3883E"/>
          <path d="M5.58387 19H15.4263C15.7391 19 16.0101 18.7768 15.9997 18.5C15.9997 18.2232 15.7391 18 15.4158 18H5.58387C5.26066 18 5 18.2232 5 18.5C5 18.7768 5.26066 19 5.58387 19Z" fill="#D3883E"/>
          <path d="M5.58387 21H15.4263C15.7391 21 16.0101 20.7679 15.9997 20.5C15.9997 20.2232 15.7391 20 15.4158 20H5.58387C5.26066 20 5 20.2232 5 20.5C5 20.7768 5.26066 21 5.58387 21Z" fill="#D3883E"/>
          <path d="M24.7386 17H27.2614C27.6705 17 28 17.3295 28 17.7386V20.2614C28 20.6705 27.6705 21 27.2614 21H24.7386C24.3295 21 24 20.6705 24 20.2614V17.7386C24 17.3295 24.3295 17 24.7386 17Z" fill="#D3883E"/>
        </g>
      </g>
    </g>
    <text x="1500.0" y="50" text-anchor="middle" font-size="72" font-weight="900" fill="var(--muted-text)" opacity="0.5" dominant-baseline="middle">=</text>
    <g transform="translate(1680.0, 0)">
      <rect id="ITEM_5_BG" x="-140" y="-180" width="280" height="360" rx="24" fill="var(--panel)" stroke="var(--accent-5)" stroke-width="2"/>
      <text id="ITEM_5_HEAD" x="0.0" y="10.0" text-anchor="middle" font-weight="bold" font-size="32" fill="var(--primary-text)" data-bg-id="ITEM_5_BG" fill-opacity="1.0" style="font-size: 25px; font-family: Inter, Segoe UI, Kalam, Roboto, Helvetica, Arial, sans-serif; font-weight: 700; letter-spacing:-0.4px;" data-final-font-size="25">
        <tspan x="0.0" dy="25.62px">Narrative Evolution</tspan>
      </text>
      <rect id="ITEM_5_HEAD_FRAME" x="-120" y="10" width="240" height="40" fill="none"/>
      <text id="ITEM_5_BODY" x="0.0" y="60.0" text-anchor="middle" font-size="22" fill="var(--primary-text)" data-bg-id="ITEM_5_BG" style="font-size: 26px; font-family: Inter, Segoe UI, Kalam, Roboto, Helvetica, Arial, sans-serif; font-weight: 400;" data-final-font-size="26">
        <tspan x="0.0" dy="26.86px">Track how details</tspan>
        <tspan x="0.0" dy="29.90px">shift to suit modern</tspan>
        <tspan x="0.0" dy="29.90px">audiences</tspan>
      </text>
      <rect id="ITEM_5_BODY_FRAME" x="-143" y="60" width="286" height="120" fill="none" data-side-overflow-fix="47.0|47.0"/>
      <circle id="ITEM_5_PAD" cx="0" cy="-70" r="58" fill="var(--icon-pad-bg)" stroke="var(--primary-text)" opacity="0.9" fill-opacity="0.9" stroke-width="2"/>
      <circle id="ITEM_5_PAD_INNER" cx="0" cy="-70" r="45.24" fill="var(--accent-4)" fill-opacity="0.22"/>
      <circle cx="0" cy="-70" r="46.4" fill="none" stroke="var(--accent-5)" stroke-width="3" stroke-dasharray="6 4"/>
      <g id="ITEM_5_ICON" transform="translate(-45, -115)" data-icon-size="90" stroke-dasharray="6 4">
        <g transform="translate(-6.7028571428571455,-5.895000000000008) scale(3.2314285714285718)">
          <path d="M25.0642 23.4047L23.9155 20.598L22.2011 21.2996L23.3511 24.1097L23.3525 24.113C23.5183 24.5137 23.3281 24.9545 22.9426 25.1096L18.0368 27.1219L18.0342 27.123C17.6335 27.2888 17.1927 27.0987 17.0376 26.7132L15.8855 23.898L14.1711 24.5997L15.3202 27.4074C15.8659 28.7594 17.403 29.3881 18.741 28.8353L18.7425 28.8347L23.6372 26.8268C24.9889 26.281 25.6173 24.7444 25.065 23.4066L25.0642 23.4047ZM8 23.5L9.70824 26.7789C10.3282 27.4289 10.2982 28.4589 9.63824 29.0689C8.98824 29.6789 7.95824 29.6489 7.34824 28.9989L2.43824 23.7889C1.82824 23.1389 1.85824 22.1089 2.50824 21.4989C3.15824 20.8889 4.18824 20.9189 4.79824 21.5689L8 23.5Z" fill="#FFB02E"/>
          <path d="M29.2283 15.0788L17.6783 2.82884C16.4083 1.47884 14.1783 1.82887 13.3883 3.50887L4.79834 21.5689L9.76834 26.8389L28.3083 19.3288C30.0183 18.6388 30.4983 16.4288 29.2283 15.0788Z" fill="#F9C23C"/>
        </g>
      </g>
    </g>
  </g>
</svg>
