<?xml version='1.0' encoding='utf-8'?>
<svg xmlns="http://www.w3.org/2000/svg" width="1920" height="1080" viewBox="0 0 1920 1080" data-theme="light">
  <style>
        @font-face {
            font-family: 'Inter';
            src: url('assets/fonts/Inter-Regular.ttf') format('truetype');
            font-weight: 400;
            font-style: normal;
            font-display: swap;
        }
        @font-face {
            font-family: 'Inter';
            src: url('assets/fonts/Inter-Bold.ttf') format('truetype');
            font-weight: 600;
            font-style: normal;
            font-display: swap;
        }
        @font-face {
            font-family: 'Inter';
            src: url('assets/fonts/Inter-Bold.ttf') format('truetype');
            font-weight: 800;
            font-style: normal;
            font-display: swap;
        }
        
:root {
    --background: #f8fafc;
    --panel: #ffffff;
    --primary-text: #0f172a;
    --muted-text: #64748b;
    --inverse-text: #ffffff;
    --border: #e2e8f0;
    --shadow-color: #000000;
    --icon-pad-bg: #1e293b;
    --art-glow: #0891b2;
    --art-glow-opacity: 0.10;
    --art-sheen: #ffffff;
    --art-sheen-opacity: 0.34;
    --art-shadow: #0f172a;
    --art-shadow-opacity: 0.14;
    --art-muted-line: #94a3b8;
    --art-panel-tint: #f1f5f9;
    --font-family: 'Inter', 'Segoe UI', 'Kalam', Roboto, Helvetica, Arial, sans-serif;
    --radius-xl: 16px;
    --font-family-headline: 'Inter', 'Segoe UI', 'Kalam', Roboto, Helvetica, Arial, sans-serif;
    --font-family-body: 'Inter', 'Segoe UI', 'Kalam', Roboto, Helvetica, Arial, sans-serif;
    --font-heading: 'Inter', 'Segoe UI', 'Kalam', Roboto, Helvetica, Arial, sans-serif;
    --font-body: 'Inter', 'Segoe UI', 'Kalam', Roboto, Helvetica, Arial, sans-serif;
    --font-size-h1: 56px;
    --font-size-h2: 40px;
    --font-size-h3: 28px;
    --font-size-body: 24px;
    --font-size-caption: 18px;
    --secondary-text: var(--muted-text);
    --panel-border: var(--border);
    --font-weight-normal: 400;
    --font-weight-medium: 500;
    --font-weight-semibold: 600;
    --font-weight-bold: 700;
    --spacing-gutter-pct: 0.07;
    --spacing-top-pct: 0.15;
    --spacing-bottom-pct: 0.07;
    --spacing-title-y-pct: 0.055;
    --accent-1: #2563eb;
    --accent-2: #16a34a;
    --accent-3: #ea580c;
    --accent-4: #7c3aed;
    --accent-5: #0284c7;
    --accent-6: #475569;
}
:root[data-theme="dark"] {
    --background: #0f172a;
    --panel: #1e293b;
    --primary-text: #f1f5f9;
    --muted-text: #94a3b8;
    --inverse-text: #0f172a;
    --border: #334155;
    --shadow-color: #000000;
    --icon-pad-bg: #1e293b;
    --art-glow: #7dd3fc;
    --art-glow-opacity: 0.18;
    --art-sheen: #ffffff;
    --art-sheen-opacity: 0.18;
    --art-shadow: #000000;
    --art-shadow-opacity: 0.28;
    --art-muted-line: #64748b;
    --art-panel-tint: #1e293b;
    --accent-1: #60a5fa;
    --accent-2: #4ade80;
    --accent-3: #f97316;
    --accent-4: #a78bfa;
    --accent-5: #38bdf8;
    --accent-6: #94a3b8;
}
:root[data-theme="light"] {
    --background: #f8fafc;
    --panel: #ffffff;
    --primary-text: #0f172a;
    --muted-text: #64748b;
    --inverse-text: #ffffff;
    --border: #e2e8f0;
    --shadow-color: #000000;
    --icon-pad-bg: #1e293b;
    --art-glow: #0891b2;
    --art-glow-opacity: 0.10;
    --art-sheen: #ffffff;
    --art-sheen-opacity: 0.34;
    --art-shadow: #0f172a;
    --art-shadow-opacity: 0.14;
    --art-muted-line: #94a3b8;
    --art-panel-tint: #f1f5f9;
    --accent-1: #2563eb;
    --accent-2: #16a34a;
    --accent-3: #ea580c;
    --accent-4: #7c3aed;
    --accent-5: #0284c7;
    --accent-6: #475569;
}</style>
  <rect x="0" y="0" width="1.92E+3" height="1.08E+3" fill="#252a34" stroke="none" id="programmatic_background"/>
  <line id="HEADER_DECOR" x1="960.0" x2="1080.0" y1="85.0" y2="85.0" stroke="var(--accent-1)" stroke-width="6" stroke-linecap="round"/>
  <defs>
    <pattern id="svg627dd264-napkin-hatch" patternUnits="userSpaceOnUse" width="12" height="12">
      <path d="M -3 12 L 12 -3 M 0 15 L 15 0" fill="none" stroke="var(--primary-text)" stroke-width="1" stroke-opacity="0.05"/>
    </pattern>
    <filter id="svg627dd264-shadow" x="-30%" y="-30%" width="160%" height="160%">
      <feDropShadow dx="0" dy="2" stdDeviation="3" flood-color="#000000" flood-opacity="0.08"/>
      <feDropShadow dx="0" dy="6" stdDeviation="10" flood-color="#000000" flood-opacity="0.12"/>
    </filter>
    <marker id="svg627dd264-arrowhead" markerWidth="10" markerHeight="10" refX="9" refY="5" orient="auto">
      <path d="M 0 0 L 10 5 L 0 10 Z" fill="var(--accent-1)"/>
    </marker>
    <filter id="svg627dd264-text-glow" x="-20%" y="-20%" width="140%" height="140%">
      <feDropShadow dx="0" dy="0" stdDeviation="2" flood-color="#000000" flood-opacity="0.4"/>
    </filter>
    <linearGradient id="svg627dd264-beam-grad" x1="0%" y1="0%" x2="100%" y2="0%">
      <stop offset="0%" stop-color="var(--accent-3)" stop-opacity="0.6"/>
      <stop offset="100%" stop-color="var(--accent-3)" stop-opacity="0"/>
    </linearGradient>
    <linearGradient id="svg627dd264-lantern-grad" x1="0%" y1="0%" x2="0%" y2="100%">
      <stop offset="0%" stop-color="var(--accent-3)"/>
      <stop offset="100%" stop-color="var(--accent-3)"/>
    </linearGradient>
    <linearGradient id="svg627dd264-level-grad-5" x1="0%" y1="0%" x2="0%" y2="100%">
      <stop offset="0%" stop-color="var(--accent-7)"/>
      <stop offset="100%" stop-color="var(--accent-7)"/>
    </linearGradient>
    <linearGradient id="svg627dd264-level-grad-4" x1="0%" y1="0%" x2="0%" y2="100%">
      <stop offset="0%" stop-color="var(--accent-1)"/>
      <stop offset="100%" stop-color="var(--accent-1)"/>
    </linearGradient>
    <linearGradient id="svg627dd264-level-grad-3" x1="0%" y1="0%" x2="0%" y2="100%">
      <stop offset="0%" stop-color="var(--accent-4)"/>
      <stop offset="100%" stop-color="var(--accent-4)"/>
    </linearGradient>
    <linearGradient id="svg627dd264-level-grad-2" x1="0%" y1="0%" x2="0%" y2="100%">
      <stop offset="0%" stop-color="var(--accent-2)"/>
      <stop offset="100%" stop-color="var(--accent-2)"/>
    </linearGradient>
    <linearGradient id="svg627dd264-level-grad-1" x1="0%" y1="0%" x2="0%" y2="100%">
      <stop offset="0%" stop-color="var(--accent-6)"/>
      <stop offset="100%" stop-color="var(--accent-6)"/>
    </linearGradient>
    <radialGradient id="svg627dd264-universal-edge-vignette" cx="50%" cy="50%" r="72%">
      <stop offset="0%" stop-color="var(--background)" stop-opacity="0"/>
      <stop offset="72%" stop-color="var(--background)" stop-opacity="0.12"/>
      <stop offset="100%" stop-color="var(--primary-text)" stop-opacity="0.08"/>
    </radialGradient>
    <linearGradient id="svg627dd264-universal-surface-sheen" x1="0%" y1="0%" x2="100%" y2="100%">
      <stop offset="0%" stop-color="var(--art-sheen)" stop-opacity="var(--art-sheen-opacity)"/>
      <stop offset="46%" stop-color="var(--art-sheen)" stop-opacity="0.035"/>
      <stop offset="100%" stop-color="var(--art-panel-tint)" stop-opacity="0.14"/>
    </linearGradient>
    <radialGradient id="svg627dd264-universal-icon-aura" cx="50%" cy="42%" r="64%">
      <stop offset="0%" stop-color="var(--art-glow)" stop-opacity="var(--art-glow-opacity)"/>
      <stop offset="100%" stop-color="var(--background)" stop-opacity="0"/>
    </radialGradient>
  </defs>
  <rect width="100%" height="100%" fill="var(--background)" id="CANVAS_BG"/>
  <rect width="100%" height="100%" fill="url(#svg627dd264-napkin-hatch)"/>
  <rect id="UNIVERSAL_EDGE_VIGNETTE" width="100%" height="100%" fill="url(#svg627dd264-universal-edge-vignette)" opacity="0.62"/>
  <text id="TITLE" x="960.0" y="59" font-size="56" font-weight="700" fill="#0f172a" text-anchor="middle" style="font-size: 60px; font-family: Inter, Segoe UI, Kalam, Roboto, Helvetica, Arial, sans-serif; font-weight: 700; letter-spacing:-1.2px;" data-final-font-size="60">
    <tspan x="960.0" dy="68.00px">The Folklore of Cader Idris</tspan>
  </text>
  <rect id="TITLE_FRAME" x="134" y="25" width="1652" height="70" fill="none"/>
  <g id="DIAGRAM_MAIN" transform="translate(0, 100)">
    <rect x="880.0" y="120" width="160" height="80" fill="url(#svg627dd264-lantern-grad)" filter="url(#svg627dd264-shadow)" stroke="var(--primary-text)" stroke-width="2"/>
    <path d="M 860.0 120 Q 960 60 1060.0 120 Z" fill="var(--primary-text)"/>
    <path d="M 1040.0 160 L 1720 20 L 1720 320 Z" fill="url(#svg627dd264-beam-grad)" opacity="0.24"/>
    <path d="M 1040 160 L 1718 92" stroke="var(--inverse-text)" stroke-width="2" stroke-opacity="0.12"/>
    <path d="M 1040 160 L 1718 250" stroke="var(--inverse-text)" stroke-width="2" stroke-opacity="0.08"/>
    <path d="M 1040 160 L 1718 92" stroke="var(--inverse-text)" stroke-width="2" stroke-opacity="0.12"/>
    <path d="M 1040 160 L 1718 250" stroke="var(--inverse-text)" stroke-width="2" stroke-opacity="0.08"/>
    <path d="M 1040 160 L 1718 92" stroke="var(--inverse-text)" stroke-width="2" stroke-opacity="0.12"/>
    <path d="M 1040 160 L 1718 250" stroke="var(--inverse-text)" stroke-width="2" stroke-opacity="0.08"/>
    <path d="M 1040 160 L 1718 92" stroke="var(--inverse-text)" stroke-width="2" stroke-opacity="0.12"/>
    <path d="M 1040 160 L 1718 250" stroke="var(--inverse-text)" stroke-width="2" stroke-opacity="0.08"/>
    <path d="M 1040 160 L 1718 92" stroke="var(--inverse-text)" stroke-width="2" stroke-opacity="0.12"/>
    <path d="M 1040 160 L 1718 250" stroke="var(--inverse-text)" stroke-width="2" stroke-opacity="0.08"/>
    <path d="M 1040 160 L 1718 92" stroke="var(--inverse-text)" stroke-width="2" stroke-opacity="0.12"/>
    <path d="M 1040 160 L 1718 250" stroke="var(--inverse-text)" stroke-width="2" stroke-opacity="0.08"/>
    <path d="M 1040 160 L 1718 92" stroke="var(--inverse-text)" stroke-width="2" stroke-opacity="0.12"/>
    <path d="M 1040 160 L 1718 250" stroke="var(--inverse-text)" stroke-width="2" stroke-opacity="0.08"/>
    <path d="M 1040 160 L 1718 92" stroke="var(--inverse-text)" stroke-width="2" stroke-opacity="0.12"/>
    <path d="M 1040 160 L 1718 250" stroke="var(--inverse-text)" stroke-width="2" stroke-opacity="0.08"/>
    <path d="M 1040 160 L 1718 92" stroke="var(--inverse-text)" stroke-width="2" stroke-opacity="0.12"/>
    <path d="M 1040 160 L 1718 250" stroke="var(--inverse-text)" stroke-width="2" stroke-opacity="0.08"/>
    <path d="M 1040 160 L 1718 92" stroke="var(--inverse-text)" stroke-width="2" stroke-opacity="0.12"/>
    <path d="M 1040 160 L 1718 250" stroke="var(--inverse-text)" stroke-width="2" stroke-opacity="0.08"/>
    <path d="M 1040 160 L 1718 92" stroke="var(--inverse-text)" stroke-width="2" stroke-opacity="0.12"/>
    <path d="M 1040 160 L 1718 250" stroke="var(--inverse-text)" stroke-width="2" stroke-opacity="0.08"/>
    <path d="M 1040 160 L 1718 92" stroke="var(--inverse-text)" stroke-width="2" stroke-opacity="0.12"/>
    <path d="M 1040 160 L 1718 250" stroke="var(--inverse-text)" stroke-width="2" stroke-opacity="0.08"/>
    <path d="M 1040 160 L 1718 92" stroke="var(--inverse-text)" stroke-width="2" stroke-opacity="0.12"/>
    <path d="M 1040 160 L 1718 250" stroke="var(--inverse-text)" stroke-width="2" stroke-opacity="0.08"/>
    <path d="M 1040 160 L 1718 92" stroke="var(--inverse-text)" stroke-width="2" stroke-opacity="0.12"/>
    <path d="M 1040 160 L 1718 250" stroke="var(--inverse-text)" stroke-width="2" stroke-opacity="0.08"/>
    <path d="M 1040 160 L 1718 92" stroke="var(--inverse-text)" stroke-width="2" stroke-opacity="0.12"/>
    <path d="M 1040 160 L 1718 250" stroke="var(--inverse-text)" stroke-width="2" stroke-opacity="0.08"/>
    <path d="M 1040 160 L 1718 92" stroke="var(--inverse-text)" stroke-width="2" stroke-opacity="0.12"/>
    <path d="M 1040 160 L 1718 250" stroke="var(--inverse-text)" stroke-width="2" stroke-opacity="0.08"/>
    <path d="M 1040 160 L 1718 92" stroke="var(--inverse-text)" stroke-width="2" stroke-opacity="0.12"/>
    <path d="M 1040 160 L 1718 250" stroke="var(--inverse-text)" stroke-width="2" stroke-opacity="0.08"/>
    <path d="M 1040 160 L 1718 92" stroke="var(--inverse-text)" stroke-width="2" stroke-opacity="0.12"/>
    <path d="M 1040 160 L 1718 250" stroke="var(--inverse-text)" stroke-width="2" stroke-opacity="0.08"/>
    <path d="M 1040 160 L 1718 92" stroke="var(--inverse-text)" stroke-width="2" stroke-opacity="0.12"/>
    <path d="M 1040 160 L 1718 250" stroke="var(--inverse-text)" stroke-width="2" stroke-opacity="0.08"/>
    <path d="M 1040 160 L 1718 92" stroke="var(--inverse-text)" stroke-width="2" stroke-opacity="0.12"/>
    <path d="M 1040 160 L 1718 250" stroke="var(--inverse-text)" stroke-width="2" stroke-opacity="0.08"/>
    <path d="M 1040 160 L 1718 92" stroke="var(--inverse-text)" stroke-width="2" stroke-opacity="0.12"/>
    <path d="M 1040 160 L 1718 250" stroke="var(--inverse-text)" stroke-width="2" stroke-opacity="0.08"/>
    <path d="M 1040 160 L 1718 92" stroke="var(--inverse-text)" stroke-width="2" stroke-opacity="0.12"/>
    <path d="M 1040 160 L 1718 250" stroke="var(--inverse-text)" stroke-width="2" stroke-opacity="0.08"/>
    <path d="M 1040 160 L 1718 92" stroke="var(--inverse-text)" stroke-width="2" stroke-opacity="0.12"/>
    <path d="M 1040 160 L 1718 250" stroke="var(--inverse-text)" stroke-width="2" stroke-opacity="0.08"/>
    <path d="M 1040 160 L 1718 92" stroke="var(--inverse-text)" stroke-width="2" stroke-opacity="0.12"/>
    <path d="M 1040 160 L 1718 250" stroke="var(--inverse-text)" stroke-width="2" stroke-opacity="0.08"/>
    <path d="M 1040 160 L 1718 92" stroke="var(--inverse-text)" stroke-width="2" stroke-opacity="0.12"/>
    <path d="M 1040 160 L 1718 250" stroke="var(--inverse-text)" stroke-width="2" stroke-opacity="0.08"/>
    <path d="M 1040 160 L 1718 92" stroke="var(--inverse-text)" stroke-width="2" stroke-opacity="0.12"/>
    <path d="M 1040 160 L 1718 250" stroke="var(--inverse-text)" stroke-width="2" stroke-opacity="0.08"/>
    <path d="M 1040 160 L 1718 92" stroke="var(--inverse-text)" stroke-width="2" stroke-opacity="0.12"/>
    <path d="M 1040 160 L 1718 250" stroke="var(--inverse-text)" stroke-width="2" stroke-opacity="0.08"/>
    <path d="M 1040 160 L 1718 92" stroke="var(--inverse-text)" stroke-width="2" stroke-opacity="0.12"/>
    <path d="M 1040 160 L 1718 250" stroke="var(--inverse-text)" stroke-width="2" stroke-opacity="0.08"/>
    <path d="M 1040 160 L 1718 92" stroke="var(--inverse-text)" stroke-width="2" stroke-opacity="0.12"/>
    <path d="M 1040 160 L 1718 250" stroke="var(--inverse-text)" stroke-width="2" stroke-opacity="0.08"/>
    <path id="ITEM_5_BG" d="M 870.0 200.0 L 1050.0 200.0 L 1062.0 322.0 L 858.0 322.0 Z" fill="var(--accent-3)" filter="url(#svg627dd264-shadow)" stroke="var(--background)" stroke-width="2" fill-opacity="1.0"/>
    <path d="M 870 200 L 1050 200 L 1110 810 L 810 810 Z" fill="url(#svg627dd264-universal-surface-sheen)" opacity="0.06"/>
    <path d="M 870 200 L 1050 200 L 1110 810 L 810 810 Z" fill="url(#svg627dd264-universal-surface-sheen)" opacity="0.06"/>
    <path d="M 870 200 L 1050 200 L 1110 810 L 810 810 Z" fill="url(#svg627dd264-universal-surface-sheen)" opacity="0.06"/>
    <path d="M 870 200 L 1050 200 L 1110 810 L 810 810 Z" fill="url(#svg627dd264-universal-surface-sheen)" opacity="0.06"/>
    <path d="M 870 200 L 1050 200 L 1110 810 L 810 810 Z" fill="url(#svg627dd264-universal-surface-sheen)" opacity="0.06"/>
    <path d="M 870 200 L 1050 200 L 1110 810 L 810 810 Z" fill="url(#svg627dd264-universal-surface-sheen)" opacity="0.06"/>
    <path d="M 870 200 L 1050 200 L 1110 810 L 810 810 Z" fill="url(#svg627dd264-universal-surface-sheen)" opacity="0.06"/>
    <path d="M 870 200 L 1050 200 L 1110 810 L 810 810 Z" fill="url(#svg627dd264-universal-surface-sheen)" opacity="0.06"/>
    <path d="M 870 200 L 1050 200 L 1110 810 L 810 810 Z" fill="url(#svg627dd264-universal-surface-sheen)" opacity="0.06"/>
    <path d="M 870 200 L 1050 200 L 1110 810 L 810 810 Z" fill="url(#svg627dd264-universal-surface-sheen)" opacity="0.06"/>
    <path d="M 870 200 L 1050 200 L 1110 810 L 810 810 Z" fill="url(#svg627dd264-universal-surface-sheen)" opacity="0.06"/>
    <path d="M 870 200 L 1050 200 L 1110 810 L 810 810 Z" fill="url(#svg627dd264-universal-surface-sheen)" opacity="0.06"/>
    <path d="M 870 200 L 1050 200 L 1110 810 L 810 810 Z" fill="url(#svg627dd264-universal-surface-sheen)" opacity="0.06"/>
    <path d="M 870 200 L 1050 200 L 1110 810 L 810 810 Z" fill="url(#svg627dd264-universal-surface-sheen)" opacity="0.06"/>
    <path d="M 870 200 L 1050 200 L 1110 810 L 810 810 Z" fill="url(#svg627dd264-universal-surface-sheen)" opacity="0.06"/>
    <path d="M 870 200 L 1050 200 L 1110 810 L 810 810 Z" fill="url(#svg627dd264-universal-surface-sheen)" opacity="0.06"/>
    <path d="M 870 200 L 1050 200 L 1110 810 L 810 810 Z" fill="url(#svg627dd264-universal-surface-sheen)" opacity="0.06"/>
    <path d="M 870 200 L 1050 200 L 1110 810 L 810 810 Z" fill="url(#svg627dd264-universal-surface-sheen)" opacity="0.06"/>
    <path d="M 870 200 L 1050 200 L 1110 810 L 810 810 Z" fill="url(#svg627dd264-universal-surface-sheen)" opacity="0.06"/>
    <path d="M 870 200 L 1050 200 L 1110 810 L 810 810 Z" fill="url(#svg627dd264-universal-surface-sheen)" opacity="0.06"/>
    <path d="M 870 200 L 1050 200 L 1110 810 L 810 810 Z" fill="url(#svg627dd264-universal-surface-sheen)" opacity="0.06"/>
    <path d="M 870 200 L 1050 200 L 1110 810 L 810 810 Z" fill="url(#svg627dd264-universal-surface-sheen)" opacity="0.06"/>
    <path d="M 870 200 L 1050 200 L 1110 810 L 810 810 Z" fill="url(#svg627dd264-universal-surface-sheen)" opacity="0.06"/>
    <path d="M 870 200 L 1050 200 L 1110 810 L 810 810 Z" fill="url(#svg627dd264-universal-surface-sheen)" opacity="0.06"/>
    <path d="M 870 200 L 1050 200 L 1110 810 L 810 810 Z" fill="url(#svg627dd264-universal-surface-sheen)" opacity="0.06"/>
    <path d="M 870 200 L 1050 200 L 1110 810 L 810 810 Z" fill="url(#svg627dd264-universal-surface-sheen)" opacity="0.06"/>
    <path d="M 870 200 L 1050 200 L 1110 810 L 810 810 Z" fill="url(#svg627dd264-universal-surface-sheen)" opacity="0.06"/>
    <path d="M 870 200 L 1050 200 L 1110 810 L 810 810 Z" fill="url(#svg627dd264-universal-surface-sheen)" opacity="0.06"/>
    <path d="M 870 200 L 1050 200 L 1110 810 L 810 810 Z" fill="url(#svg627dd264-universal-surface-sheen)" opacity="0.06"/>
    <line x1="890.0" y1="210.0" x2="878.0" y2="312.0" stroke="var(--background)" stroke-width="3" stroke-opacity="0.3"/>
    <circle cx="960" cy="261.0" r="43" fill="var(--icon-pad-bg)" stroke="none"/>
    <circle id="ITEM_5_RING" cx="960" cy="261.0" r="36" fill="none" stroke="var(--accent-2)" stroke-width="3" filter="url(#svg627dd264-shadow)" stroke-dasharray="6 4"/>
    <circle id="ITEM_5_PAD" cx="960.00" cy="261.00" r="44.80" fill="var(--icon-pad-bg)" stroke="var(--primary-text)" stroke-width="2" opacity="0.9"/>
    <circle id="ITEM_5_PAD_INNER" cx="960.00" cy="261.00" r="34.94" fill="var(--accent-3)" fill-opacity="0.22"/>
    <g id="ITEM_5_ICON" transform="translate(932.0, 233.0)" data-icon-size="56">
      <g transform="translate(-11.891823008849553,-11.891823008849553) scale(2.4739115044247786)">
        <path d="M10.38 29.1038L23.28 30.0938C24.36 30.0938 25.38 29.5838 26.02 28.7138L29.2 24.4138C29.76 23.6438 29.98 22.6738 29.79 21.7438L29.2849 19.1806L28.12 18.3438L27.785 15.6438L28.4809 15.1008L28.45 14.9438C28.29 14.1238 27.84 13.3938 27.17 12.8938L23.38 9.52378L21 5.12378L18.1 4.96378L13.04 3.12378L6.37996 10.1638L4.76996 13.7738L4.50996 14.3538L2.84996 17.4238C2.67996 17.7238 2.86996 20.5038 2.80996 20.8438C2.80996 20.8438 9.75996 29.1038 10.38 29.1038Z" fill="#9B9B9B"/>
        <path d="M20 10.1038L15.95 21.2438L25.66 23.9438L29.29 19.1738L28.48 15.1038L20 10.1038Z" fill="#E6E6E6"/>
        <path d="M2.51 18.3936L2 22.1036H5L5.79 18.9736C5.92 18.4136 6.27 17.9436 6.76 17.6436L11 15.1036L7.95 8.4436L6.57 9.9536C6.44 10.0936 6.34 10.2536 6.26 10.4336L4.51 14.3636L2.85 17.4336C2.68 17.7336 2.57 18.0536 2.51 18.3936Z" fill="#636363"/>
        <path d="M11.51 20.6137L16 25.1037L25.66 23.9437L18.18 20.5437C17.52 20.2437 17.18 19.4937 17.39 18.7937L20 10.1037L21 5.12367C20.16 3.78367 19.77 3.40367 18.33 2.93367C17.37 2.59367 16.54 2.30367 16.54 2.30367C16.54 2.30367 16 2.07367 15.42 2.01367C14.69 1.95367 14.22 2.08367 13.6 2.55367L11 15.1037V19.3837C11 19.8437 11.18 20.2837 11.51 20.6137Z" fill="#D3D3D3"/>
        <path d="M2 22.1038H5L16 25.1038V30.0938L11.75 30.1038C10.6 30.1038 9.47 29.8438 8.44 29.3238L7.07 28.6438C6.36 28.2938 5.72 27.8238 5.16 27.2638L4.23 26.3338C3.42 25.5238 2.81 24.5438 2.45 23.4538L2 22.1038Z" fill="#636363"/>
        <path d="M29.98 22.9136C30.1 23.5736 29.92 24.2536 29.47 24.7636L25.5 29.2836C25.09 29.7536 24.33 30.0936 23.71 30.1036H16V25.1036L25.66 23.9436L29.28 19.1736L29.98 22.9136Z" fill="#9B9B9B"/>
        <path d="M17.51 4.43372L16.4 2.86372C15.72 1.90372 14.33 1.79372 13.51 2.64372L6.75003 9.68372C6.10003 10.3637 6.22003 11.4737 7.00003 11.9937L11 15.1037L15.63 10.8937C16.18 10.3937 16.58 9.75372 16.79 9.03372L17.74 5.78372C17.87 5.32372 17.79 4.82372 17.51 4.43372Z" fill="#9B9B9B"/>
      </g>
    </g>
    <line id="ITEM_5_LINE" x1="1056.0" y1="261.0" x2="1136.0" y2="261.0" stroke="var(--accent-3)" stroke-width="3" stroke-dasharray="6 4" stroke-opacity="1.0"/>
    <circle id="ITEM_5_DOT" cx="1136.0" cy="261.0" r="5" fill="var(--accent-3)" fill-opacity="1.0"/>
    <rect id="ITEM_5_LABEL_BG" x="1146.0" y="205.0" width="420.0" height="207.0" rx="18" fill="var(--panel)" fill-opacity="0.88" stroke="var(--accent-5)" stroke-opacity="0.32" stroke-width="1.5"/>
    <text id="ITEM_5_HEAD" x="1166.0" y="221.0" font-weight="bold" font-size="34" fill="var(--primary-text)" text-anchor="start" data-bg-id="ITEM_5_LABEL_BG" fill-opacity="1.0" style="font-size: 23px; font-family: Inter, Segoe UI, Kalam, Roboto, Helvetica, Arial, sans-serif; font-weight: 700; letter-spacing:-0.4px;" data-final-font-size="23">
      <tspan x="1166.0" dy="30.18px">Geological Evidence</tspan>
    </text>
    <rect id="ITEM_5_HEAD_FRAME" x="1166.0" y="221.0" width="220" height="50" fill="none"/>
    <text id="ITEM_5_BODY" x="1166.0" y="276.0" font-size="20" fill="var(--primary-text)" text-anchor="start" data-bg-id="ITEM_5_LABEL_BG" style="font-size: 26px; font-family: Inter, Segoe UI, Kalam, Roboto, Helvetica, Arial, sans-serif; font-weight: 400;" data-final-font-size="26">
      <tspan x="1166.0" dy="32.84px">Boulders and cliffs reflect</tspan>
      <tspan x="1166.0" dy="29.90px">the scale of giant actions</tspan>
    </text>
    <rect id="ITEM_5_BODY_FRAME" x="1166" y="276.0" width="380" height="120" fill="none"/>
    <path id="ITEM_4_BG" d="M 858.0 322.0 L 1062.0 322.0 L 1074.0 444.0 L 846.0 444.0 Z" fill="var(--accent-2)" filter="url(#svg627dd264-shadow)" stroke="var(--background)" stroke-width="2" fill-opacity="1.0"/>
    <line x1="878.0" y1="332.0" x2="866.0" y2="434.0" stroke="var(--background)" stroke-width="3" stroke-opacity="0.3"/>
    <circle cx="960" cy="383.0" r="43" fill="var(--icon-pad-bg)" stroke="none"/>
    <circle id="ITEM_4_RING" cx="960" cy="383.0" r="36" fill="none" stroke="var(--accent-1)" stroke-width="3" filter="url(#svg627dd264-shadow)" stroke-dasharray="6 4"/>
    <circle id="ITEM_4_PAD" cx="960.00" cy="383.00" r="44.80" fill="var(--icon-pad-bg)" stroke="var(--primary-text)" stroke-width="2" opacity="0.9"/>
    <circle id="ITEM_4_PAD_INNER" cx="960.00" cy="383.00" r="34.94" fill="var(--accent-2)" fill-opacity="0.22"/>
    <g id="ITEM_4_ICON" transform="translate(932.0, 355.0)" data-icon-size="56">
      <g transform="translate(-11.935999999999995,-16.30399999999999) scale(2.4959999999999996)">
        <path d="M28.6091 13.4087C29.1117 12.7014 28.6045 12.2189 27.7372 12.2435C27.6941 12.2447 27.6508 12.2453 27.6074 12.2453C25.1221 12.2453 23.1448 10.2323 23.1448 7.74702C23.1448 7.51961 23.2616 7.02361 23.2942 6.80525C23.4221 5.94728 22.8867 5.39999 22.1243 5.81381C20.4089 6.7449 18.818 8.41894 18.818 10.5079C18.818 13.5455 21.3032 15.7955 24.3408 15.7955C26.1926 15.7955 27.6125 14.8115 28.6091 13.4087Z" fill="#FFB02E"/>
        <path d="M2.94454 29.9999H9.07587L12.7545 28.8492L16.4332 29.9999C17.2929 29.9999 18.0786 29.4772 18.3898 28.6932L23.8149 14.8855C23.978 14.479 23.6667 14.0435 23.222 14.0435H8.28071C8.01391 14.0435 7.77675 14.2032 7.68781 14.45L2.06999 28.7658C1.818 29.3465 2.27752 29.9999 2.94454 29.9999Z" fill="#44911B"/>
        <path d="M18.3898 28.6788L23.8149 14.8712C23.978 14.4646 23.6667 14.0291 23.222 14.0291H10.7858C10.519 14.0291 10.2818 14.1888 10.1929 14.4356L4.08588 30H9.08605L12.148 29.2374L16.4481 30C17.293 30 18.0786 29.4773 18.3898 28.6788Z" fill="#86D72F"/>
        <path d="M9.09603 29.9999H16.4333C16.4926 29.9999 16.5519 29.9709 16.6111 29.9709V16.4827H9.08122V29.9999H9.09603Z" fill="#1C1C1C"/>
        <path d="M7.89539 14.1597L13.6021 28.6788C13.9134 29.4773 14.6842 29.9855 15.5587 29.9855H29.0474C29.7145 29.9855 30.174 29.3321 29.9368 28.7223L24.319 14.4066C24.23 14.1597 23.9929 14 23.7261 14H23.2369H8.29561C8.13256 14.029 7.99915 14.0871 7.89539 14.1597Z" fill="#86D72F"/>
        <path d="M20.9838 22.6245H18.0045C17.6191 22.6245 17.2781 22.3922 17.1299 22.0437L15.8848 18.9802C15.6328 18.3704 16.0923 17.717 16.7593 17.717H19.7387C20.1241 17.717 20.465 17.9493 20.6133 18.2978L21.8584 21.3613C22.1104 21.9711 21.6509 22.6245 20.9838 22.6245Z" fill="#44911B"/>
      </g>
    </g>
    <line id="ITEM_4_LINE" x1="852.0" y1="383.0" x2="772.0" y2="383.0" stroke="var(--accent-2)" stroke-width="3" stroke-dasharray="6 4" stroke-opacity="1.0"/>
    <circle id="ITEM_4_DOT" cx="772.0" cy="383.0" r="5" fill="var(--accent-2)" fill-opacity="1.0"/>
    <rect id="ITEM_4_LABEL_BG" x="342.0" y="327.0" width="420.0" height="207.0" rx="18" fill="var(--panel)" fill-opacity="0.88" stroke="var(--accent-4)" stroke-opacity="0.32" stroke-width="1.5"/>
    <text id="ITEM_4_HEAD" x="742.0" y="343.0" font-weight="bold" font-size="34" fill="var(--primary-text)" text-anchor="end" data-bg-id="ITEM_4_LABEL_BG" fill-opacity="1.0" style="font-size: 30px; font-family: Inter, Segoe UI, Kalam, Roboto, Helvetica, Arial, sans-serif; font-weight: 700; letter-spacing:-0.4px;" data-final-font-size="30">
      <tspan x="742.0" dy="33.25px">Physical Danger</tspan>
    </text>
    <rect id="ITEM_4_HEAD_FRAME" x="522.0" y="343.0" width="220" height="50" fill="none"/>
    <text id="ITEM_4_BODY" x="742.0" y="398.0" font-size="20" fill="var(--primary-text)" text-anchor="end" data-bg-id="ITEM_4_LABEL_BG" style="font-size: 26px; font-family: Inter, Segoe UI, Kalam, Roboto, Helvetica, Arial, sans-serif; font-weight: 400;" data-final-font-size="26">
      <tspan x="742.0" dy="26.86px">Extreme weather creates real</tspan>
      <tspan x="742.0" dy="29.90px">risks of hypothermia</tspan>
      <tspan x="742.0" dy="29.90px">and isolation</tspan>
    </text>
    <rect id="ITEM_4_BODY_FRAME" x="362" y="398.0" width="380" height="120" fill="none"/>
    <path id="ITEM_3_BG" d="M 846.0 444.0 L 1074.0 444.0 L 1086.0 566.0 L 834.0 566.0 Z" fill="var(--accent-1)" filter="url(#svg627dd264-shadow)" stroke="var(--background)" stroke-width="2" fill-opacity="1.0"/>
    <line x1="866.0" y1="454.0" x2="854.0" y2="556.0" stroke="var(--background)" stroke-width="3" stroke-opacity="0.3"/>
    <circle cx="960" cy="505.0" r="43" fill="var(--icon-pad-bg)" stroke="none"/>
    <circle id="ITEM_3_RING" cx="960" cy="505.0" r="36" fill="none" stroke="var(--accent-5)" stroke-width="3" filter="url(#svg627dd264-shadow)" stroke-dasharray="6 4"/>
    <circle id="ITEM_3_PAD" cx="960.00" cy="505.00" r="44.80" fill="var(--icon-pad-bg)" stroke="var(--primary-text)" stroke-width="2" opacity="0.9"/>
    <circle id="ITEM_3_PAD_INNER" cx="960.00" cy="505.00" r="34.94" fill="var(--accent-1)" fill-opacity="0.22"/>
    <g id="ITEM_3_ICON" transform="translate(932.0, 477.0)" data-icon-size="56">
      <g transform="translate(-9.564799999999991,-9.273599999999995) scale(0.14559999999999998)" vector-effect="non-scaling-stroke" fill="#f1f5f9" fill-opacity="1.0" stroke="none">
        <path fill="#f1f5f9" d="m137.75 17.28l-15.313 78.782l20.313 56.876h45.97zM74.5 19L20 378.156v116.156h208L210.125 386.5H113.28l-2.218-6.156l-25.78-71.594l17.562-6.344l23.562 65.406h90.344l230.688-2.968l9.812-33.406H278.5V312.75h184.22l7.374-25.156L415.53 209.5H291.47l-20.345-37.594h-75.28l-.095-.28h-46.313L159.563 200l-17.593 6.28l-26.532-74.25l-.126.72zm133.375 178.22h56.094l21.405 38.874l-26.094-.438l-51.405-38.437zm230.47 12.28l38.53 55.094L493.03 209.5h-54.686zm-82.814 15.938c6.613 0 11.97 5.356 11.97 11.968c0 6.613-5.357 11.97-11.97 11.97c-6.61 0-11.967-5.357-11.967-11.97c0-6.612 5.356-11.97 11.968-11.97zm44.595 0c6.612 0 12 5.356 12 11.968c0 6.613-5.388 11.97-12 11.97s-11.97-5.357-11.97-11.97c0-6.612 5.358-11.97 11.97-11.97zm-66.188 29.187c6.612 0 11.97 5.356 11.97 11.97c0 6.61-5.358 11.967-11.97 11.967c-6.61 0-11.968-5.356-11.968-11.968c0-6.613 5.356-11.97 11.967-11.97zm43.125 0c6.612 0 12 5.356 12 11.97c0 6.61-5.388 11.967-12 11.967c-6.61 0-11.968-5.356-11.968-11.968c0-6.613 5.357-11.97 11.97-11.97zm42.063 0c6.612 0 11.97 5.356 11.97 11.97c0 6.61-5.358 11.967-11.97 11.967s-11.97-5.356-11.97-11.968c0-6.613 5.358-11.97 11.97-11.97z" vector-effect="non-scaling-stroke" stroke="none"/>
      </g>
    </g>
    <line id="ITEM_3_LINE" x1="1080.0" y1="505.0" x2="1160.0" y2="505.0" stroke="var(--accent-1)" stroke-width="3" stroke-dasharray="6 4" stroke-opacity="1.0"/>
    <circle id="ITEM_3_DOT" cx="1160.0" cy="505.0" r="5" fill="var(--accent-1)" fill-opacity="1.0"/>
    <rect id="ITEM_3_LABEL_BG" x="1170.0" y="449.0" width="420.0" height="207.0" rx="18" fill="var(--panel)" fill-opacity="0.88" stroke="var(--accent-3)" stroke-opacity="0.32" stroke-width="1.5"/>
    <text id="ITEM_3_HEAD" x="1190.0" y="465.0" font-weight="bold" font-size="34" fill="var(--accent-1)" text-anchor="start" data-bg-id="ITEM_3_LABEL_BG" fill-opacity="1.0" style="font-size: 30px; font-family: Inter, Segoe UI, Kalam, Roboto, Helvetica, Arial, sans-serif; font-weight: 700; letter-spacing:-0.4px;" data-final-font-size="30">
      <tspan x="1190.0" dy="33.25px">Spectral Hounds</tspan>
    </text>
    <rect id="ITEM_3_HEAD_FRAME" x="1190.0" y="465.0" width="220" height="50" fill="none"/>
    <text id="ITEM_3_BODY" x="1190.0" y="520.0" font-size="20" fill="var(--primary-text)" text-anchor="start" data-bg-id="ITEM_3_LABEL_BG" style="font-size: 26px; font-family: Inter, Segoe UI, Kalam, Roboto, Helvetica, Arial, sans-serif; font-weight: 400;" data-final-font-size="26">
      <tspan x="1190.0" dy="32.84px">Howling dogs of the Otherworld</tspan>
      <tspan x="1190.0" dy="29.90px">foretell impending death</tspan>
    </text>
    <rect id="ITEM_3_BODY_FRAME" x="1190" y="520.0" width="380" height="120" fill="none"/>
    <path id="ITEM_2_BG" d="M 834.0 566.0 L 1086.0 566.0 L 1098.0 688.0 L 822.0 688.0 Z" fill="var(--accent-6)" filter="url(#svg627dd264-shadow)" stroke="var(--background)" stroke-width="2" fill-opacity="1.0"/>
    <line x1="854.0" y1="576.0" x2="842.0" y2="678.0" stroke="var(--background)" stroke-width="3" stroke-opacity="0.3"/>
    <circle cx="960" cy="627.0" r="43" fill="var(--icon-pad-bg)" stroke="none"/>
    <circle id="ITEM_2_RING" cx="960" cy="627.0" r="36" fill="none" stroke="var(--accent-4)" stroke-width="3" filter="url(#svg627dd264-shadow)" stroke-dasharray="6 4"/>
    <circle id="ITEM_2_PAD" cx="960.00" cy="627.00" r="44.80" fill="var(--icon-pad-bg)" stroke="var(--primary-text)" stroke-width="2" opacity="0.9"/>
    <circle id="ITEM_2_PAD_INNER" cx="960.00" cy="627.00" r="34.94" fill="var(--accent-6)" fill-opacity="0.22"/>
    <g id="ITEM_2_ICON" transform="translate(932.0, 599.0)" data-icon-size="56">
      <g transform="translate(-10.654867256637164,-12.510300884955747) scale(2.4739115044247786)">
        <path d="M3.27393 28.0227C3.46919 27.8274 3.78578 27.8274 3.98104 28.0227C4.1763 28.2179 4.1763 28.5345 3.98104 28.7298L2.56683 30.144C2.37156 30.3392 2.05498 30.3392 1.85972 30.144C1.66446 29.9487 1.66446 29.6321 1.85972 29.4369L3.27393 28.0227Z" fill="#402A32"/>
        <path d="M27.9001 8.10118C28.1994 7.95818 28.48 7.7627 28.7279 7.51475C29.8995 6.34318 29.8995 4.44369 28.7279 3.27211C27.5563 2.10054 25.6569 2.10054 24.4853 3.27211C24.2373 3.52006 24.0418 3.80062 23.8989 4.09998L23.7782 3.97928L13.5691 12.1405C13.5691 13.3175 12.5867 14.2613 11.4102 14.2259L11.3453 14.2909C11.1201 14.516 10.917 14.7621 10.7387 15.0258L3.62561 25.546L4.57008 27.5017L6.45404 28.3745L16.9743 21.2614C17.238 21.083 17.4841 20.8799 17.7092 20.6548L17.7785 20.5855L17.7879 20.2879C17.8223 19.1986 18.7607 18.3595 19.8471 18.4465L28.0208 8.22192L27.9001 8.10118Z" fill="#0074BA"/>
        <path d="M29.435 8.2218L24.4853 3.27209L23.7782 3.9792L28.7279 8.92892L23.4246 14.2322C23.2294 14.4275 23.2294 14.7441 23.4246 14.9393C23.6199 15.1346 23.9365 15.1346 24.1317 14.9393L29.435 9.63602C29.8256 9.24549 29.8256 8.61233 29.435 8.2218Z" fill="#F9C23C"/>
        <path d="M11.4038 14.2323L13.2026 12.4335L13.5611 12.1469L19.8531 18.439L19.5665 18.7975L17.7677 20.5963L11.4038 14.2323Z" fill="#F9C23C"/>
        <path d="M6.45225 28.3762L3.62382 25.5477L3.27027 25.9013C2.48922 26.6823 2.48922 27.9487 3.27027 28.7297C4.05131 29.5108 5.31764 29.5108 6.09869 28.7297L6.45225 28.3762Z" fill="#F9C23C"/>
      </g>
    </g>
    <line id="ITEM_2_LINE" x1="828.0" y1="627.0" x2="748.0" y2="627.0" stroke="var(--accent-6)" stroke-width="3" stroke-dasharray="6 4" stroke-opacity="1.0"/>
    <circle id="ITEM_2_DOT" cx="748.0" cy="627.0" r="5" fill="var(--accent-6)" fill-opacity="1.0"/>
    <rect id="ITEM_2_LABEL_BG" x="318.0" y="571.0" width="420.0" height="207.0" rx="18" fill="var(--panel)" fill-opacity="0.88" stroke="var(--accent-2)" stroke-opacity="0.32" stroke-width="1.5"/>
    <text id="ITEM_2_HEAD" x="718.0" y="587.0" font-weight="bold" font-size="34" fill="var(--accent-6)" text-anchor="end" data-bg-id="ITEM_2_LABEL_BG" fill-opacity="1.0" style="font-size: 30px; font-family: Inter, Segoe UI, Kalam, Roboto, Helvetica, Arial, sans-serif; font-weight: 700; letter-spacing:-0.4px;" data-final-font-size="30">
      <tspan x="718.0" dy="33.25px">Summit Night</tspan>
    </text>
    <rect id="ITEM_2_HEAD_FRAME" x="498.0" y="587.0" width="220" height="50" fill="none"/>
    <text id="ITEM_2_BODY" x="718.0" y="642.0" font-size="20" fill="var(--primary-text)" text-anchor="end" data-bg-id="ITEM_2_LABEL_BG" style="font-size: 26px; font-family: Inter, Segoe UI, Kalam, Roboto, Helvetica, Arial, sans-serif; font-weight: 400;" data-final-font-size="26">
      <tspan x="718.0" dy="32.84px">Sleepers wake as poets</tspan>
      <tspan x="718.0" dy="29.90px">or suffer mental breakdown</tspan>
    </text>
    <rect id="ITEM_2_BODY_FRAME" x="338" y="642.0" width="380" height="120" fill="none"/>
    <path id="ITEM_1_BG" d="M 822.0 688.0 L 1098.0 688.0 L 1110.0 810.0 L 810.0 810.0 Z" fill="var(--accent-5)" filter="url(#svg627dd264-shadow)" stroke="var(--background)" stroke-width="2" fill-opacity="1.0"/>
    <line x1="842.0" y1="698.0" x2="830.0" y2="800.0" stroke="var(--background)" stroke-width="3" stroke-opacity="0.3"/>
    <circle cx="960" cy="749.0" r="43" fill="var(--icon-pad-bg)" stroke="none"/>
    <circle id="ITEM_1_RING" cx="960" cy="749.0" r="36" fill="none" stroke="var(--accent-6)" stroke-width="3" filter="url(#svg627dd264-shadow)" stroke-dasharray="6 4"/>
    <circle id="ITEM_1_PAD" cx="960.00" cy="749.00" r="44.80" fill="var(--icon-pad-bg)" stroke="var(--primary-text)" stroke-width="2" opacity="0.9"/>
    <circle id="ITEM_1_PAD_INNER" cx="960.00" cy="749.00" r="34.94" fill="var(--accent-5)" fill-opacity="0.22"/>
    <g id="ITEM_1_ICON" transform="translate(932.0, 721.0)" data-icon-size="56">
      <g transform="translate(-13.41511111111111,-14.709333333333328) scale(2.5884444444444443)">
        <path d="M13 8H11V15H13V8Z" fill="#7D4533"/>
        <path d="M21 8H19V15H21V8Z" fill="#7D4533"/>
        <path d="M6.79089 28.3796L8.36926 20.5854H11.1907L8.59622 28.3796C7.8395 30.8443 6.499 29.8606 6.79089 28.3796Z" fill="#7D4533"/>
        <path d="M23.6307 20.5854L25.2091 28.3796C25.501 29.8606 24.1605 30.8443 23.4038 28.3796L20.8093 20.5854H23.6307Z" fill="#7D4533"/>
        <path d="M11.0009 20.5953L11.1221 25.9824C11.1659 27.515 12.4155 27.3156 12.4732 25.9824L13.0102 20.5953H11.0009Z" fill="#402A32"/>
        <path d="M21 20.5953L20.8788 25.9824C20.8349 27.515 19.5854 27.3156 19.5276 25.9824L18.9907 20.5953H21Z" fill="#402A32"/>
        <path d="M11 3C9.89543 3 9 3.89543 9 5V6C9 7.65685 10.3431 9 12 9H20C21.6569 9 23 7.65685 23 6V5C23 3.89543 22.1046 3 21 3H11Z" fill="#A56953"/>
        <path d="M11 14C9 14 7 17.5 7 19.25C7 20.2165 7.7835 21 8.75 21H23.25C24.2165 21 25 20.2165 25 19.25C25 17.5 23 14 21 14H11Z" fill="#A56953"/>
      </g>
    </g>
    <line id="ITEM_1_LINE" x1="1104.0" y1="749.0" x2="1184.0" y2="749.0" stroke="var(--accent-5)" stroke-width="3" stroke-dasharray="6 4" stroke-opacity="1.0"/>
    <circle id="ITEM_1_DOT" cx="1184.0" cy="749.0" r="5" fill="var(--accent-5)" fill-opacity="1.0"/>
    <rect id="ITEM_1_LABEL_BG" x="1194.0" y="693.0" width="420.0" height="207.0" rx="18" fill="var(--panel)" fill-opacity="0.88" stroke="var(--accent-1)" stroke-opacity="0.32" stroke-width="1.5"/>
    <text id="ITEM_1_HEAD" x="1214.0" y="709.0" font-weight="bold" font-size="34" fill="var(--primary-text)" text-anchor="start" data-bg-id="ITEM_1_LABEL_BG" fill-opacity="1.0" style="font-size: 30px; font-family: Inter, Segoe UI, Kalam, Roboto, Helvetica, Arial, sans-serif; font-weight: 700; letter-spacing:-0.4px;" data-final-font-size="30">
      <tspan x="1214.0" dy="33.25px">Giant's Throne</tspan>
    </text>
    <rect id="ITEM_1_HEAD_FRAME" x="1214.0" y="709.0" width="220" height="50" fill="none"/>
    <text id="ITEM_1_BODY" x="1214.0" y="764.0" font-size="20" fill="var(--primary-text)" text-anchor="start" data-bg-id="ITEM_1_LABEL_BG" style="font-size: 26px; font-family: Inter, Segoe UI, Kalam, Roboto, Helvetica, Arial, sans-serif; font-weight: 400;" data-final-font-size="26">
      <tspan x="1214.0" dy="32.84px">Mountain serves as seat</tspan>
      <tspan x="1214.0" dy="29.90px">for the giant Idris Gawr</tspan>
    </text>
    <rect id="ITEM_1_BODY_FRAME" x="1214" y="764.0" width="380" height="120" fill="none"/>
    <rect x="790.0" y="810.0" width="340" height="40" fill="var(--muted-text)" rx="4"/>
    <path d="M 710 850.0 Q 960 820.0 1210 850.0 L 1260 980 L 660 980 Z" fill="var(--panel)"/>
  </g>
</svg>
