<?xml version='1.0' encoding='utf-8'?>
<svg xmlns="http://www.w3.org/2000/svg" width="1920" height="1080" viewBox="0 0 1920 1080" data-theme="dark">
  <style>
        @font-face {
            font-family: 'Inter';
            src: url('assets/fonts/Inter-Regular.ttf') format('truetype');
            font-weight: 400;
            font-style: normal;
            font-display: swap;
        }
        @font-face {
            font-family: 'Inter';
            src: url('assets/fonts/Inter-Bold.ttf') format('truetype');
            font-weight: 600;
            font-style: normal;
            font-display: swap;
        }
        @font-face {
            font-family: 'Inter';
            src: url('assets/fonts/Inter-Bold.ttf') format('truetype');
            font-weight: 800;
            font-style: normal;
            font-display: swap;
        }
        
:root {
    --background: #0f172a;
    --panel: #1e293b;
    --primary-text: #f1f5f9;
    --muted-text: #94a3b8;
    --inverse-text: #0f172a;
    --border: #334155;
    --shadow-color: #000000;
    --icon-pad-bg: #1e293b;
    --art-glow: #7dd3fc;
    --art-glow-opacity: 0.18;
    --art-sheen: #ffffff;
    --art-sheen-opacity: 0.18;
    --art-shadow: #000000;
    --art-shadow-opacity: 0.28;
    --art-muted-line: #64748b;
    --art-panel-tint: #1e293b;
    --font-family: 'Inter', 'Segoe UI', 'Kalam', Roboto, Helvetica, Arial, sans-serif;
    --radius-xl: 16px;
    --font-family-headline: 'Inter', 'Segoe UI', 'Kalam', Roboto, Helvetica, Arial, sans-serif;
    --font-family-body: 'Inter', 'Segoe UI', 'Kalam', Roboto, Helvetica, Arial, sans-serif;
    --font-heading: 'Inter', 'Segoe UI', 'Kalam', Roboto, Helvetica, Arial, sans-serif;
    --font-body: 'Inter', 'Segoe UI', 'Kalam', Roboto, Helvetica, Arial, sans-serif;
    --font-size-h1: 56px;
    --font-size-h2: 40px;
    --font-size-h3: 28px;
    --font-size-body: 24px;
    --font-size-caption: 18px;
    --secondary-text: var(--muted-text);
    --panel-border: var(--border);
    --font-weight-normal: 400;
    --font-weight-medium: 500;
    --font-weight-semibold: 600;
    --font-weight-bold: 700;
    --spacing-gutter-pct: 0.07;
    --spacing-top-pct: 0.15;
    --spacing-bottom-pct: 0.07;
    --spacing-title-y-pct: 0.055;
    --accent-1: #22d3ee;
    --accent-2: #38bdf8;
    --accent-3: #60a5fa;
    --accent-4: #818cf8;
    --accent-5: #a78bfa;
    --accent-6: #2dd4bf;
}
:root[data-theme="dark"] {
    --background: #0f172a;
    --panel: #1e293b;
    --primary-text: #f1f5f9;
    --muted-text: #94a3b8;
    --inverse-text: #0f172a;
    --border: #334155;
    --shadow-color: #000000;
    --icon-pad-bg: #1e293b;
    --art-glow: #7dd3fc;
    --art-glow-opacity: 0.18;
    --art-sheen: #ffffff;
    --art-sheen-opacity: 0.18;
    --art-shadow: #000000;
    --art-shadow-opacity: 0.28;
    --art-muted-line: #64748b;
    --art-panel-tint: #1e293b;
    --accent-1: #22d3ee;
    --accent-2: #38bdf8;
    --accent-3: #60a5fa;
    --accent-4: #818cf8;
    --accent-5: #a78bfa;
    --accent-6: #2dd4bf;
}
:root[data-theme="light"] {
    --background: #f8fafc;
    --panel: #ffffff;
    --primary-text: #0f172a;
    --muted-text: #64748b;
    --inverse-text: #ffffff;
    --border: #e2e8f0;
    --shadow-color: #000000;
    --icon-pad-bg: #1e293b;
    --art-glow: #0891b2;
    --art-glow-opacity: 0.10;
    --art-sheen: #ffffff;
    --art-sheen-opacity: 0.34;
    --art-shadow: #0f172a;
    --art-shadow-opacity: 0.14;
    --art-muted-line: #94a3b8;
    --art-panel-tint: #f1f5f9;
    --accent-1: #0891b2;
    --accent-2: #0284c7;
    --accent-3: #2563eb;
    --accent-4: #4f46e5;
    --accent-5: #7c3aed;
    --accent-6: #0d9488;
}</style>
  <rect x="0" y="0" width="1.92E+3" height="1.08E+3" fill="#252a34" stroke="none" id="programmatic_background"/>
  <line id="HEADER_DECOR" x1="960.0" x2="1080.0" y1="105.0" y2="105.0" stroke="var(--accent-1)" stroke-width="6" stroke-linecap="round"/>
  <defs>
    <pattern id="svg2aff0a99-napkin-hatch" patternUnits="userSpaceOnUse" width="12" height="12">
      <path d="M -3 12 L 12 -3 M 0 15 L 15 0" fill="none" stroke="var(--primary-text)" stroke-width="1" stroke-opacity="0.05"/>
    </pattern>
    <filter id="svg2aff0a99-shadow" x="-30%" y="-30%" width="160%" height="160%">
      <feDropShadow dx="0" dy="3" stdDeviation="6" flood-color="#000000" flood-opacity="0.10"/>
      <feDropShadow dx="0" dy="8" stdDeviation="12" flood-color="#000000" flood-opacity="0.16"/>
    </filter>
    <radialGradient id="svg2aff0a99-universal-edge-vignette" cx="50%" cy="50%" r="72%">
      <stop offset="0%" stop-color="var(--background)" stop-opacity="0"/>
      <stop offset="72%" stop-color="var(--background)" stop-opacity="0.12"/>
      <stop offset="100%" stop-color="var(--primary-text)" stop-opacity="0.08"/>
    </radialGradient>
    <linearGradient id="svg2aff0a99-universal-surface-sheen" x1="0%" y1="0%" x2="100%" y2="100%">
      <stop offset="0%" stop-color="var(--art-sheen)" stop-opacity="var(--art-sheen-opacity)"/>
      <stop offset="46%" stop-color="var(--art-sheen)" stop-opacity="0.035"/>
      <stop offset="100%" stop-color="var(--art-panel-tint)" stop-opacity="0.14"/>
    </linearGradient>
    <radialGradient id="svg2aff0a99-universal-icon-aura" cx="50%" cy="42%" r="64%">
      <stop offset="0%" stop-color="var(--art-glow)" stop-opacity="var(--art-glow-opacity)"/>
      <stop offset="100%" stop-color="var(--background)" stop-opacity="0"/>
    </radialGradient>
    <linearGradient id="svg2aff0a99-card-panel-sheen" x1="0%" y1="0%" x2="100%" y2="100%">
      <stop offset="0%" stop-color="var(--inverse-text)" stop-opacity="0.20"/>
      <stop offset="48%" stop-color="var(--inverse-text)" stop-opacity="0.04"/>
      <stop offset="100%" stop-color="var(--background)" stop-opacity="0.16"/>
    </linearGradient>
    <radialGradient id="svg2aff0a99-card-icon-glow" cx="50%" cy="35%" r="62%">
      <stop offset="0%" stop-color="var(--inverse-text)" stop-opacity="0.22"/>
      <stop offset="100%" stop-color="var(--background)" stop-opacity="0"/>
    </radialGradient>
    <filter id="svg2aff0a99-text-glow" x="-20%" y="-20%" width="140%" height="140%">
      <feDropShadow dx="0" dy="0" stdDeviation="2" flood-color="#000000" flood-opacity="0.4"/>
    </filter>
    <marker id="svg2aff0a99-arrowhead" markerWidth="10" markerHeight="7" refX="9" refY="3.5" orient="auto" markerUnits="strokeWidth">
      <polygon points="0 0, 10 3.5, 0 7" fill="var(--muted-text)" opacity="0.6"/>
    </marker>
  </defs>
  <rect width="100%" height="100%" fill="var(--background)" id="CANVAS_BG"/>
  <rect width="100%" height="100%" fill="url(#svg2aff0a99-napkin-hatch)"/>
  <rect id="UNIVERSAL_EDGE_VIGNETTE" width="100%" height="100%" fill="url(#svg2aff0a99-universal-edge-vignette)" opacity="0.62"/>
  <text id="TITLE" x="960.0" y="59" font-size="54" font-weight="800" fill="#f1f5f9" text-anchor="middle" style="font-size: 60px; font-family: Inter, Segoe UI, Kalam, Roboto, Helvetica, Arial, sans-serif; font-weight: 700; letter-spacing:-1.2px;" data-final-font-size="60">
    <tspan x="960.0" dy="68.00px">Historical Roots of Somerset Legends</tspan>
  </text>
  <rect id="TITLE_FRAME" x="134" y="35" width="1652" height="78" fill="none"/>
  <rect x="120" y="150" width="1680" height="830" rx="40" fill="var(--panel)" fill-opacity="0.24" stroke="var(--muted-text)" stroke-width="2" opacity="0.94"/>
  <g id="DIAGRAM_MAIN">
    <g filter="url(#svg2aff0a99-shadow)">
      <rect id="ITEM_1_BG" x="170" y="180" width="480" height="388" rx="28" fill="var(--panel)" fill-opacity="0.98" stroke="var(--accent-1)" stroke-width="3"/>
      <rect x="170" y="180" width="480" height="18" rx="9" fill="var(--accent-1)" fill-opacity="0.55"/>
      <rect x="295" y="216" width="230" height="30" rx="15" fill="var(--accent-1)" fill-opacity="0.10"/>
      <circle id="ITEM_1_PAD" cx="410" cy="262" r="54" fill="var(--icon-pad-bg)" opacity="0.95" fill-opacity="0.9" stroke-width="2" stroke="var(--primary-text)"/>
      <circle id="ITEM_1_PAD_INNER" cx="410" cy="262" r="42.12" fill="var(--accent-2)" fill-opacity="0.22"/>
      <circle cx="410" cy="262" r="42" fill="none" stroke="var(--accent-1)" stroke-width="3" stroke-dasharray="6 4"/>
      <g id="ITEM_1_ICON" transform="translate(373, 225)" data-icon-size="74">
        <g transform="translate(-7.928000000000004,-6.875000000000005) scale(0.17550000000000002)" vector-effect="non-scaling-stroke" fill="#f1f5f9" fill-opacity="1.0" stroke="none">
          <path fill="#f1f5f9" d="m495.145 15.451l-178.215.205s7.918 25.215 15.652 35.63c13.155 17.712 67.295 2.752 59.79 35.714h55.4c6.995-6.98 14.212-15.862 15.064-23.44c1.035-9.207-15.175-16.126-12.29-24.931c5.22-15.92 44.599-23.178 44.599-23.178M256 28.311L30.455 238.82l32.666 21.777L256 83.79l192.879 176.807l32.666-21.778zM393 105v26.555l46 42.933V105zm-137 3.209L209.318 151h93.364zM189.682 169l-32.727 30H279v-30zM297 169v30h58.045l-32.727-30zm-159.682 48l-34.564 31.684l64.246-.288V217zM185 217v31.316l222.76-.994L374.682 217zm242.303 48.236L83.02 266.773l-18.141 16.63l-.932-.622A31.6 31.6 0 0 1 60.737 295h390.526a31.6 31.6 0 0 1-3.211-12.219l-.932.621zM32 267c-7.839 0-14 6.161-14 14s6.161 14 14 14s14-6.161 14-14s-6.161-14-14-14m448 0c-7.839 0-14 6.161-14 14s6.161 14 14 14s14-6.161 14-14s-6.161-14-14-14M59.656 313a31.66 31.66 0 0 1 1.08 30H103v-30zM121 313v78h46v-78zm64 0v78h46v-78zm64 0v30h30v-30zm48 0v174h94V313zm112 0v30h42.264a31.66 31.66 0 0 1 1.08-30zm-377 2c-7.839 0-14 6.161-14 14s6.161 14 14 14s14-6.161 14-14s-6.161-14-14-14m448 0c-7.839 0-14 6.161-14 14s6.161 14 14 14s14-6.161 14-14s-6.161-14-14-14M59.656 361a31.66 31.66 0 0 1 1.08 30H103v-30zM249 361v30h30v-30zm160 0v30h42.264a31.66 31.66 0 0 1 1.08-30zm-377 2c-7.839 0-14 6.161-14 14s6.161 14 14 14s14-6.161 14-14s-6.161-14-14-14m448 0c-7.839 0-14 6.161-14 14s6.161 14 14 14s14-6.161 14-14s-6.161-14-14-14m-128 28h22v18h-22zM59.656 409a31.66 31.66 0 0 1 1.08 30H279v-30zM409 409v30h42.264a31.66 31.66 0 0 1 1.08-30zm-377 2c-7.839 0-14 6.161-14 14s6.161 14 14 14s14-6.161 14-14s-6.161-14-14-14m448 0c-7.839 0-14 6.161-14 14s6.161 14 14 14s14-6.161 14-14s-6.161-14-14-14M32 457c-7.839 0-14 6.161-14 14s6.161 14 14 14s14-6.161 14-14s-6.161-14-14-14m28.736 0a31.66 31.66 0 0 1-1.08 30H87v-30zM105 457v30h174v-30zm304 0v30h43.344a31.66 31.66 0 0 1-1.08-30zm71 0c-7.839 0-14 6.161-14 14s6.161 14 14 14s14-6.161 14-14s-6.161-14-14-14" vector-effect="non-scaling-stroke" stroke="none"/>
        </g>
      </g>
      <text id="ITEM_1_HEAD" x="410.0" y="328.0" font-weight="800" font-size="28" fill="var(--accent-2)" text-anchor="middle" data-bg-id="ITEM_1_BG" fill-opacity="1.0" stroke="none" style="font-size: 30px; font-family: Inter, Segoe UI, Kalam, Roboto, Helvetica, Arial, sans-serif; font-weight: 700; letter-spacing:-0.4px;" data-final-font-size="30">
        <tspan x="410.0" dy="42.97px">Sally in the Wood</tspan>
      </text>
      <rect id="ITEM_1_HEAD_FRAME" x="230" y="328" width="360" height="56" fill="none"/>
      <text id="ITEM_1_BODY" x="410.0" y="378.0" font-size="18" fill="var(--primary-text)" text-anchor="middle" data-bg-id="ITEM_1_BG" style="font-size: 26px; font-family: Inter, Segoe UI, Kalam, Roboto, Helvetica, Arial, sans-serif; font-weight: 400;" data-final-font-size="26">
        <tspan x="410.0" dy="47.53px">Linked to real woman Sarah Gibson's</tspan>
        <tspan x="410.0" dy="29.90px">woodland life</tspan>
      </text>
      <rect id="ITEM_1_BODY_FRAME" x="195" y="378" width="430" height="156" fill="none"/>
    </g>
    <g filter="url(#svg2aff0a99-shadow)">
      <rect id="ITEM_2_BG" x="720" y="180" width="480" height="388" rx="28" fill="var(--panel)" fill-opacity="0.98" stroke="var(--accent-2)" stroke-width="3"/>
      <rect x="720" y="180" width="480" height="18" rx="9" fill="var(--accent-2)" fill-opacity="0.55"/>
      <rect x="845" y="216" width="230" height="30" rx="15" fill="var(--accent-2)" fill-opacity="0.10"/>
      <circle id="ITEM_2_PAD" cx="960" cy="262" r="54" fill="var(--icon-pad-bg)" opacity="0.95" fill-opacity="0.9" stroke-width="2" stroke="var(--primary-text)"/>
      <circle id="ITEM_2_PAD_INNER" cx="960" cy="262" r="42.12" fill="var(--accent-3)" fill-opacity="0.22"/>
      <circle cx="960" cy="262" r="42" fill="none" stroke="var(--accent-2)" stroke-width="3" stroke-dasharray="6 4"/>
      <g id="ITEM_2_ICON" transform="translate(923, 225)" data-icon-size="74">
        <g transform="translate(-11.137142857142862,-10.385000000000005) scale(3.008571428571429)">
          <path d="M25.0642 23.4047L23.9155 20.598L22.2011 21.2996L23.3511 24.1097L23.3525 24.113C23.5183 24.5137 23.3281 24.9545 22.9426 25.1096L18.0368 27.1219L18.0342 27.123C17.6335 27.2888 17.1927 27.0987 17.0376 26.7132L15.8855 23.898L14.1711 24.5997L15.3202 27.4074C15.8659 28.7594 17.403 29.3881 18.741 28.8353L18.7425 28.8347L23.6372 26.8268C24.9889 26.281 25.6173 24.7444 25.065 23.4066L25.0642 23.4047ZM8 23.5L9.70824 26.7789C10.3282 27.4289 10.2982 28.4589 9.63824 29.0689C8.98824 29.6789 7.95824 29.6489 7.34824 28.9989L2.43824 23.7889C1.82824 23.1389 1.85824 22.1089 2.50824 21.4989C3.15824 20.8889 4.18824 20.9189 4.79824 21.5689L8 23.5Z" fill="#FFB02E"/>
          <path d="M29.2283 15.0788L17.6783 2.82884C16.4083 1.47884 14.1783 1.82887 13.3883 3.50887L4.79834 21.5689L9.76834 26.8389L28.3083 19.3288C30.0183 18.6388 30.4983 16.4288 29.2283 15.0788Z" fill="#F9C23C"/>
        </g>
      </g>
      <text id="ITEM_2_HEAD" x="960.0" y="328.0" font-weight="800" font-size="28" fill="var(--accent-3)" text-anchor="middle" data-bg-id="ITEM_2_BG" fill-opacity="1.0" stroke="none" style="font-size: 30px; font-family: Inter, Segoe UI, Kalam, Roboto, Helvetica, Arial, sans-serif; font-weight: 700; letter-spacing:-0.4px;" data-final-font-size="30">
        <tspan x="960.0" dy="42.97px">Brockley Combe</tspan>
      </text>
      <rect id="ITEM_2_HEAD_FRAME" x="780" y="328" width="360" height="56" fill="none"/>
      <text id="ITEM_2_BODY" x="960.0" y="378.0" font-size="18" fill="var(--primary-text)" text-anchor="middle" data-bg-id="ITEM_2_BG" style="font-size: 26px; font-family: Inter, Segoe UI, Kalam, Roboto, Helvetica, Arial, sans-serif; font-weight: 400;" data-final-font-size="26">
        <tspan x="960.0" dy="47.53px">Relies on repeated oral folklore</tspan>
        <tspan x="960.0" dy="29.90px">and travel motifs</tspan>
      </text>
      <rect id="ITEM_2_BODY_FRAME" x="745" y="378" width="430" height="156" fill="none"/>
    </g>
    <g filter="url(#svg2aff0a99-shadow)">
      <rect id="ITEM_3_BG" x="1270" y="180" width="480" height="388" rx="28" fill="var(--panel)" fill-opacity="0.98" stroke="var(--accent-3)" stroke-width="3"/>
      <rect x="1270" y="180" width="480" height="18" rx="9" fill="var(--accent-3)" fill-opacity="0.55"/>
      <rect x="1395" y="216" width="230" height="30" rx="15" fill="var(--accent-3)" fill-opacity="0.10"/>
      <circle id="ITEM_3_PAD" cx="1510" cy="262" r="54" fill="var(--icon-pad-bg)" opacity="0.95" fill-opacity="0.9" stroke-width="2" stroke="var(--primary-text)"/>
      <circle id="ITEM_3_PAD_INNER" cx="1510" cy="262" r="42.12" fill="var(--accent-4)" fill-opacity="0.22"/>
      <circle cx="1510" cy="262" r="42" fill="none" stroke="var(--accent-3)" stroke-width="3" stroke-dasharray="6 4"/>
      <g id="ITEM_3_ICON" transform="translate(1473, 225)" data-icon-size="74">
        <g transform="translate(-7.928000000000004,-8.279000000000005) scale(0.17550000000000002)" vector-effect="non-scaling-stroke" fill="#f1f5f9" fill-opacity="1.0" stroke="none">
          <path fill="#f1f5f9" d="m18.08 23l.1 18H494V23zM254.3 54.93L133 61.6l30.1 68.5l98.1-3.6zm115.9.28l-92.9.53l3 71.96l96.8-.9zM18.23 56.43l.35 74.67l72.27-2.4l24.35-72.27zM393 64.24l-.5 47.16l15.7 21.5l85.8-6.3V64.93zM120.8 84.68l-17.6 49.82l41.1-1l-8.2-34.02zm354.7 56.02l-4 75.5l22.5-.6v-74.9zm-25.7 3.5l-97.3 10.7L346 219l110.7-3.2zm-243.8.7l-4 75.5l126.1-3.9l7-71.1zm-145.33 2.7l-3.9 75.5l126.13-3.9l-6.9-71.6zm-42 1.5l.33 72.4l24.77-.8l-6.9-71.6zm278.93 84.3L276 277.2l2.1 42l128.7-1.9l-7.6-79.7zm-40.2 1.4l-127.2 6l8 69.5l124.7 6.6zm236.6 3.1l-66.5 2.9l-7.5 75.8l74-5.2zm-474.89 7l.31 65.8l100.78-3.1l-6.9-62.7zm470.29 81.2l-115.9 10.5l-3.3 65l121.5-3.5zm-422.36 4.1l-47.52 2l.34 72.9l51.1-1.3zm17.84 0l3.98 68.5l138.64 9.6l-3-78.1zm161.22 4.3l-5.5 69l107.5 5.4l-1-73.5zm185.4 81.1l-4 75.5l66.5-.6v-73.8zm-9.8 1.2l-39 3.6l27.4 28zm-399.46 1.8l-2.13 40.6l.16 34.8H145.4v-68.9l-46.56-2.5l-18.4 14L68.56 421zm247.96.3l-111.3 1.5l3.5 72.5l114.7-2.4zm101.2 4.3l-72.2 5.9l-8.9 62.1l125.6.6l-6.2-27z" vector-effect="non-scaling-stroke" stroke="none"/>
        </g>
      </g>
      <text id="ITEM_3_HEAD" x="1510.0" y="328.0" font-weight="800" font-size="28" fill="var(--accent-4)" text-anchor="middle" data-bg-id="ITEM_3_BG" fill-opacity="1.0" stroke="none" style="font-size: 30px; font-family: Inter, Segoe UI, Kalam, Roboto, Helvetica, Arial, sans-serif; font-weight: 700; letter-spacing:-0.4px;" data-final-font-size="30">
        <tspan x="1510.0" dy="42.97px">Cadbury Castle</tspan>
      </text>
      <rect id="ITEM_3_HEAD_FRAME" x="1330" y="328" width="360" height="56" fill="none"/>
      <text id="ITEM_3_BODY" x="1510.0" y="378.0" font-size="18" fill="var(--primary-text)" text-anchor="middle" data-bg-id="ITEM_3_BG" style="font-size: 26px; font-family: Inter, Segoe UI, Kalam, Roboto, Helvetica, Arial, sans-serif; font-weight: 400;" data-final-font-size="26">
        <tspan x="1510.0" dy="47.53px">Anchored in ancient hillfort</tspan>
        <tspan x="1510.0" dy="29.90px">and Arthurian myth</tspan>
      </text>
      <rect id="ITEM_3_BODY_FRAME" x="1295" y="378" width="430" height="156" fill="none"/>
    </g>
    <g filter="url(#svg2aff0a99-shadow)">
      <rect id="ITEM_4_BG" x="260" y="580" width="660" height="370" rx="30" fill="var(--panel)" fill-opacity="0.98" stroke="var(--accent-4)" stroke-width="3"/>
      <rect x="260" y="590" width="660" height="18" rx="9" fill="var(--accent-4)" fill-opacity="0.55"/>
      <rect x="430" y="628" width="320" height="32" rx="16" fill="var(--accent-4)" fill-opacity="0.10"/>
      <circle id="ITEM_4_PAD" cx="590" cy="684" r="54" fill="var(--icon-pad-bg)" opacity="0.95" fill-opacity="0.9" stroke-width="2" stroke="var(--primary-text)"/>
      <circle id="ITEM_4_PAD_INNER" cx="590" cy="684" r="42.12" fill="var(--accent-5)" fill-opacity="0.22"/>
      <circle cx="590" cy="684" r="42" fill="none" stroke="var(--accent-4)" stroke-width="3" stroke-dasharray="6 4"/>
      <g id="ITEM_4_ICON" transform="translate(551, 645)" data-icon-size="78">
        <g transform="translate(-9.137142857142862,-9.137142857142862) scale(3.008571428571429)">
          <path d="M4.89138 11.3024L14.4322 14.7761L8.60967 6.45894C8.41734 6.18648 8.48466 5.80823 8.75712 5.6159C9.02959 5.42357 9.40784 5.49088 9.60017 5.76335L15.4246 14.082V3.92664C15.4246 3.59327 15.6971 3.3208 16.0305 3.3208C16.3638 3.3208 16.6363 3.59327 16.6363 3.92664V14.3388L23.3293 6.36276C23.5441 6.10632 23.9256 6.07427 24.182 6.28903C24.4384 6.5038 24.4705 6.88526 24.2557 7.1417L17.7289 14.9196L27.5349 12.2895C27.8587 12.203 28.1888 12.3953 28.2754 12.7191C28.3619 13.0428 28.1696 13.373 27.8458 13.4595L18.0359 16.0871L27.5831 19.5631C27.8972 19.6785 28.0607 20.0247 27.9453 20.3388C27.8555 20.5824 27.6247 20.7363 27.3747 20.7363C27.3074 20.7363 27.2369 20.7235 27.1663 20.701L17.6275 17.2271L23.4511 25.5446C23.6434 25.817 23.5761 26.1953 23.3037 26.3876C23.1979 26.4613 23.0761 26.4966 22.9543 26.4966C22.7619 26.4966 22.576 26.4069 22.4574 26.237L16.6363 17.9219V28.0736C16.6363 28.4101 16.3638 28.6794 16.0305 28.6794C15.6971 28.6794 15.4246 28.4069 15.4246 28.0736V17.6679L8.7315 25.6406C8.6129 25.7817 8.44301 25.8554 8.26991 25.8554C8.13208 25.8554 7.99424 25.8073 7.88205 25.7143C7.62561 25.4996 7.59355 25.1181 7.80832 24.8617L14.334 17.085L4.52268 19.7103C4.47139 19.7263 4.4201 19.7327 4.36561 19.7327C4.09955 19.7327 3.85273 19.5532 3.78221 19.2839C3.69566 18.9602 3.88799 18.63 4.21174 18.5435L14.0213 15.916L4.47787 12.4404C4.16373 12.325 4.00025 11.9788 4.11565 11.6646C4.23105 11.3505 4.57724 11.187 4.89138 11.3024Z" fill="#F3AD61"/>
          <path d="M16.0016 2C8.26995 2 2 8.26995 2 16.0016C2 23.7333 8.26995 30.0032 16.0016 30.0032C23.7333 30.0032 30 23.7333 30 16.0016C30 8.26995 23.7333 2 16.0016 2ZM16.0016 26.7532C9.77974 26.7532 5.23315 22.2203 5.23315 15.9984C5.23315 9.77653 9.77974 5.21953 16.0016 5.21953C22.2235 5.21953 26.7668 9.77653 26.7668 15.9984C26.7636 22.2235 22.2235 26.7532 16.0016 26.7532Z" fill="#A56953"/>
          <path d="M16.0016 5.73745C17.3864 5.73745 18.7327 6.00992 19.9956 6.54203C21.2169 7.05811 22.3164 7.79858 23.2588 8.741C24.2012 9.68342 24.9417 10.7829 25.4578 12.0042C25.9931 13.2704 26.2624 14.6135 26.2624 15.9982C26.2624 17.383 25.9899 18.7293 25.4578 19.9923C24.9417 21.2136 24.2012 22.3131 23.2588 23.2555C22.3164 24.1979 21.2169 24.9384 19.9956 25.4545C18.7295 25.9898 17.3864 26.259 16.0016 26.259C14.6168 26.259 13.2705 25.9866 12.0075 25.4545C10.7862 24.9384 9.68675 24.1979 8.74433 23.2555C7.80191 22.3131 7.06144 21.2136 6.54536 19.9923C6.01004 18.7261 5.74078 17.383 5.74078 15.9982C5.74078 14.6135 6.01325 13.2672 6.54536 12.0042C7.06144 10.7829 7.80191 9.68342 8.74433 8.741C9.68675 7.79858 10.7862 7.05811 12.0075 6.54203C13.2705 6.00992 14.6136 5.73745 16.0016 5.73745ZM16.0016 4.73413C9.77971 4.73413 4.73425 9.77958 4.73425 16.0014C4.73425 22.2233 9.77971 27.2688 16.0016 27.2688C22.2234 27.2688 27.2689 22.2233 27.2689 16.0014C27.2657 9.77958 22.2234 4.73413 16.0016 4.73413Z" fill="#6D4534"/>
          <path d="M16.0016 19.377C17.8658 19.377 19.377 17.8658 19.377 16.0016C19.377 14.1374 17.8658 12.6262 16.0016 12.6262C14.1374 12.6262 12.6262 14.1374 12.6262 16.0016C12.6262 17.8658 14.1374 19.377 16.0016 19.377Z" fill="#A56953"/>
          <path d="M16.0016 17.5755C16.8709 17.5755 17.5756 16.8709 17.5756 16.0016C17.5756 15.1324 16.8709 14.4277 16.0016 14.4277C15.1324 14.4277 14.4277 15.1324 14.4277 16.0016C14.4277 16.8709 15.1324 17.5755 16.0016 17.5755Z" fill="#F3C07B"/>
        </g>
      </g>
      <text id="ITEM_4_HEAD" x="590.0" y="754.0" font-weight="800" font-size="30" fill="var(--accent-5)" text-anchor="middle" data-bg-id="ITEM_4_BG" fill-opacity="1.0" stroke="none" style="font-size: 30px; font-family: Inter, Segoe UI, Kalam, Roboto, Helvetica, Arial, sans-serif; font-weight: 700; letter-spacing:-0.4px;" data-final-font-size="30">
        <tspan x="590.0" dy="44.21px">Phantom Coaches</tspan>
      </text>
      <rect id="ITEM_4_HEAD_FRAME" x="380" y="754" width="420" height="58" fill="none"/>
      <text id="ITEM_4_BODY" x="595.0" y="798.0" font-size="18" fill="var(--primary-text)" text-anchor="middle" data-bg-id="ITEM_4_BG" style="font-size: 26px; font-family: Inter, Segoe UI, Kalam, Roboto, Helvetica, Arial, sans-serif; font-weight: 400;" data-final-font-size="26">
        <tspan x="595.0" dy="45.54px">Rooted in hazardous historical coach</tspan>
        <tspan x="595.0" dy="29.90px">travel conditions</tspan>
      </text>
      <rect id="ITEM_4_BODY_FRAME" x="360" y="798" width="470" height="148" fill="none"/>
    </g>
    <g filter="url(#svg2aff0a99-shadow)">
      <rect id="ITEM_5_BG" x="1000" y="580" width="660" height="370" rx="30" fill="var(--panel)" fill-opacity="0.98" stroke="var(--accent-5)" stroke-width="3"/>
      <rect x="1000" y="590" width="660" height="18" rx="9" fill="var(--accent-5)" fill-opacity="0.55"/>
      <rect x="1170" y="628" width="320" height="32" rx="16" fill="var(--accent-5)" fill-opacity="0.10"/>
      <circle id="ITEM_5_PAD" cx="1330" cy="684" r="54" fill="var(--icon-pad-bg)" opacity="0.95" fill-opacity="0.9" stroke-width="2" stroke="var(--primary-text)"/>
      <circle id="ITEM_5_PAD_INNER" cx="1330" cy="684" r="42.12" fill="var(--accent-6)" fill-opacity="0.22"/>
      <circle cx="1330" cy="684" r="42" fill="none" stroke="var(--accent-5)" stroke-width="3" stroke-dasharray="6 4"/>
      <g id="ITEM_5_ICON" transform="translate(1291, 645)" data-icon-size="78">
        <g transform="translate(-6.689491525423733,-6.689491525423733) scale(3.8074576271186444)" vector-effect="non-scaling-stroke" stroke-width="2.65" stroke-linecap="round" stroke-linejoin="round" stroke-opacity="1.0">
          <path d="M13.446 2.6l7.955 7.954a2.045 2.045 0 0 1 0 2.892l-7.955 7.955a2.045 2.045 0 0 1 -2.892 0l-7.955 -7.955a2.045 2.045 0 0 1 0 -2.892l7.955 -7.955a2.045 2.045 0 0 1 2.892 0z" vector-effect="non-scaling-stroke" fill="none" stroke="#f1f5f9"/>
          <path d="M9 14v-2c0 -.59 .414 -1 1 -1h5" vector-effect="non-scaling-stroke" fill="none" stroke="#f1f5f9"/>
          <path d="M13 9l2 2l-2 2" vector-effect="non-scaling-stroke" fill="none" stroke="#f1f5f9"/>
        </g>
      </g>
      <text id="ITEM_5_HEAD" x="1330.0" y="754.0" font-weight="800" font-size="30" fill="var(--accent-6)" text-anchor="middle" data-bg-id="ITEM_5_BG" fill-opacity="1.0" stroke="none" style="font-size: 30px; font-family: Inter, Segoe UI, Kalam, Roboto, Helvetica, Arial, sans-serif; font-weight: 700; letter-spacing:-0.4px;" data-final-font-size="30">
        <tspan x="1330.0" dy="44.21px">Modern Marketing</tspan>
      </text>
      <rect id="ITEM_5_HEAD_FRAME" x="1120" y="754" width="420" height="58" fill="none"/>
      <text id="ITEM_5_BODY" x="1335.0" y="798.0" font-size="18" fill="var(--primary-text)" text-anchor="middle" data-bg-id="ITEM_5_BG" style="font-size: 26px; font-family: Inter, Segoe UI, Kalam, Roboto, Helvetica, Arial, sans-serif; font-weight: 400;" data-final-font-size="26">
        <tspan x="1335.0" dy="45.54px">Amplified by paranormal culture</tspan>
        <tspan x="1335.0" dy="29.90px">and local tourism</tspan>
      </text>
      <rect id="ITEM_5_BODY_FRAME" x="1100" y="798" width="470" height="148" fill="none"/>
    </g>
  </g>
</svg>
